<?xml version="1.0" encoding="UTF-8"?>
<svg width="200px" height="36px" viewBox="0 0 200 36" version="1.1" xmlns="http://www.w3.org/2000/svg" xmlns:xlink="http://www.w3.org/1999/xlink">
    <!-- Generator: sketchtool 41.1 (35376) - http://www.bohemiancoding.com/sketch -->
    <title>431C3CB5-E6CC-428F-8DE8-4C19A81997C1</title>
    <desc>Created with sketchtool.</desc>
    <defs></defs>
    <g id="3p-logos" stroke="none" stroke-width="1" fill="none" fill-rule="evenodd">
        <g id="logo-3p" transform="translate(-339.000000, -439.000000)" fill="#000000">
            <g id="acorntv_logo_white" transform="translate(339.000000, 439.000000)">
                <g id="Acorn" transform="translate(140.000000, 0.000000)">
                    <path d="M0,0 C0,0 15,2.4 30,2.4 C45,2.4 60,0 60,0 L60,36 C60,36 45,33.6 30,33.6 C15,33.6 0,36 0,36 L0,0 Z M21.5957142,12.09 L21.5957142,7.44 L19.0457142,7.44 L19.0457142,12.09 L16.4057142,12.09 L16.4057142,14.34 L19.0457142,14.34 L19.0457142,24.21 C19.0457142,24.9300036 19.1157135,25.5099978 19.2557142,25.95 C19.3957149,26.3900022 19.6107128,26.7299988 19.9007142,26.97 C20.1907157,27.2100012 20.5707119,27.3749996 21.0407142,27.465 C21.5107166,27.5550005 22.0757109,27.6 22.7357142,27.6 L24.6857142,27.6 L24.6857142,25.35 L23.5157142,25.35 C23.1157122,25.35 22.7907155,25.3350002 22.5407142,25.305 C22.290713,25.2749999 22.0957149,25.2100005 21.9557142,25.11 C21.8157135,25.0099995 21.7207145,24.8700009 21.6707142,24.69 C21.620714,24.5099991 21.5957142,24.2700015 21.5957142,23.97 L21.5957142,14.34 L24.6857142,14.34 L24.6857142,12.09 L21.5957142,12.09 Z M37.9242858,27.6 L43.5942858,12.09 L40.9242858,12.09 L36.6942858,25.02 L36.6342858,25.02 L32.2842858,12.09 L29.4342858,12.09 L35.1942858,27.6 L37.9242858,27.6 Z" id="Combined-Shape"></path>
                </g>
                <path d="M0.0665634981,27.3866188 C-0.0443756654,27.6362319 -0.0166408745,27.7749059 0.149767871,27.7749059 L2.03573365,27.7749059 C2.25761198,27.7749059 2.39628593,27.6917015 2.4794903,27.5252928 L4.39319087,23.0599914 L12.9355065,23.0599914 L14.849207,27.5252928 C14.9046766,27.6917015 15.0433506,27.7749059 15.2652289,27.7749059 L17.0679903,27.7749059 C17.2898686,27.7749059 17.3453382,27.6639667 17.2343991,27.4143536 L8.85849221,8.38828707 C8.71981825,8.13867395 8.5811443,8.13867395 8.44247034,8.41602186 L0.0665634981,27.3866188 Z M8.55340951,13.3250798 C8.63661388,13.1586711 8.71981825,13.1586711 8.80302262,13.3528146 L11.9925236,20.868943 L5.33617376,20.868943 L8.55340951,13.3250798 Z M37.7987318,25.8612053 C35.6354181,25.8612053 33.7771871,25.112366 32.2517736,23.5869525 C30.7263601,22.061539 29.9775208,20.203308 29.9775208,18.0399943 C29.9775208,15.8766806 30.7263601,14.0184496 32.2517736,12.4930361 C33.7771871,10.9676226 35.6354181,10.1910485 37.7987318,10.1910485 C38.8249191,10.1910485 39.6846976,10.2742529 40.3503326,10.4406616 C41.0159675,10.6070703 41.7093373,10.8844183 42.4581767,11.2727053 C42.7909942,11.4668489 42.9019333,11.4391141 42.9019333,11.1340314 L42.9019333,9.63635266 C42.9019333,9.38673954 42.9019333,9.33126996 42.4859115,9.10939164 C41.1269067,8.36055228 39.5737584,8 37.7987318,8 C34.9975179,8 32.6123259,8.97071768 30.6431558,10.9398878 C28.6739856,12.909058 27.7032679,15.2665152 27.7032679,18.0399943 C27.7032679,20.8134734 28.6739856,23.1709306 30.6431558,25.1401008 C32.6123259,27.0815361 34.9975179,28.0522538 37.7987318,28.0522538 C39.4073497,28.0522538 41.0159675,27.6917015 42.6245854,26.9983317 C42.8187289,26.8873926 42.9019333,26.7487186 42.9019333,26.5823099 L42.9019333,24.9459572 C42.9019333,24.7518137 42.7909942,24.7240789 42.541381,24.8350181 C41.0714371,25.5283878 39.490554,25.8612053 37.7987318,25.8612053 Z M65.3244971,8 C62.5232832,8 60.1380912,8.97071768 58.168921,10.9398878 C56.1997509,12.909058 55.2012984,15.2665152 55.2012984,18.0399943 C55.2012984,20.8134734 56.1720161,23.1709306 58.1411862,25.1401008 C60.1103564,27.0815361 62.5232832,28.0522538 65.3244971,28.0522538 C68.0979761,28.0522538 70.4831682,27.0815361 72.4523383,25.1401008 C74.4215085,23.1709306 75.4199609,20.8134734 75.4199609,18.0399943 C75.4199609,15.2665152 74.4215085,12.909058 72.4523383,10.9398878 C70.4831682,8.97071768 68.0979761,8 65.3244971,8 Z M65.3244971,25.8612053 C63.1611834,25.8612053 61.3029524,25.112366 59.7775389,23.5869525 C58.2521254,22.061539 57.503286,20.203308 57.503286,18.0399943 C57.503286,15.8766806 58.2521254,14.0184496 59.7775389,12.4930361 C61.3029524,10.9676226 63.1611834,10.1910485 65.3244971,10.1910485 C67.460076,10.1910485 69.2905721,10.9676226 70.8159856,12.4930361 C72.3413991,14.0184496 73.0902385,15.8766806 73.0902385,18.0399943 C73.0902385,20.203308 72.3413991,22.061539 70.8159856,23.5869525 C69.2905721,25.112366 67.460076,25.8612053 65.3244971,25.8612053 Z M89.3279439,8.36055228 C89.1060655,8.36055228 88.9951264,8.47149144 88.9951264,8.69336977 L88.9951264,27.4420884 C88.9951264,27.6639667 89.0783308,27.7749059 89.2724743,27.7749059 L91.0752357,27.7749059 C91.2416444,27.7749059 91.3248488,27.6639667 91.3248488,27.4420884 L91.3248488,19.8982253 C91.3248488,19.7040817 91.435788,19.5931426 91.6299315,19.5931426 L94.2370019,19.5931426 L100.726943,27.5252928 C100.865617,27.6917015 101.032026,27.7749059 101.1707,27.7749059 L103.361748,27.7749059 C103.666831,27.7749059 103.7223,27.6639667 103.528157,27.4143536 L96.8163374,19.1771207 C99.1737946,18.4282814 100.366391,16.62552 100.366391,13.7688365 C100.366391,10.2187833 98.4526901,8.36055228 93.3217538,8.36055228 L89.3279439,8.36055228 Z M91.3248488,10.8289487 C91.3248488,10.5793356 91.3248488,10.523866 91.6299315,10.523866 L93.3772233,10.523866 C96.4835199,10.523866 97.925729,11.5223184 97.925729,13.96298 C97.925729,16.4036416 96.5112547,17.4575637 93.4049581,17.4575637 L91.6021967,17.4575637 C91.3525836,17.4575637 91.3248488,17.4298289 91.3248488,17.1247462 L91.3248488,10.8289487 Z M130,8.58243061 C130,8.44375665 129.94453,8.36055228 129.805856,8.36055228 L127.892156,8.36055228 C127.781217,8.36055228 127.725747,8.44375665 127.725747,8.58243061 L127.725747,22.3388869 L115.855257,8.44375665 C115.716583,8.24961312 115.550174,8.3050827 115.550174,8.55469582 L115.550174,27.5252928 C115.550174,27.6917015 115.605644,27.7749059 115.744317,27.7749059 L117.602548,27.7749059 C117.741222,27.7749059 117.796692,27.6917015 117.796692,27.497558 L117.796692,13.8797757 L129.694917,27.7194363 L129.778122,27.8026407 C129.916796,27.9135798 130,27.8858451 130,27.7194363 L130,8.58243061 Z" id="ACORN"></path>
            </g>
        </g>
    </g>
</svg>