<?xml version="1.0" encoding="UTF-8" standalone="no"?>
<svg width="189px" height="56px" viewBox="0 0 189 56" version="1.1" xmlns="http://www.w3.org/2000/svg" xmlns:xlink="http://www.w3.org/1999/xlink">
    <!-- Generator: Sketch 3.8.3 (29802) - http://www.bohemiancoding.com/sketch -->
    <title>Group 4</title>
    <desc>Created with Sketch.</desc>
    <defs></defs>
    <g id="Old" stroke="none" stroke-width="1" fill="none" fill-rule="evenodd">
        <g id="Group-4">
            <path d="M0.205128208,33.694035 C0.205128208,33.194035 12.9513165,24.7756829 13.8743935,25.7756829 C13.8743935,25.7756829 23.4756812,40.0054402 23.9372196,39.5054402 C23.9372196,39.5054402 30.4267725,26.3634287 38.586338,15.7853725 C46.6147869,5.37729593 56.3115747,0.189623292 56.7693748,0.685573484 L56.7693748,15.7853722 C57.2031551,16.2553008 49.4102383,23.5115634 41.8344269,32.606739 C33.2890402,42.8659428 24.7939421,55.0706639 24.4269695,55.0706639 C24.1037801,55.0706639 19.4342309,49.4291143 13.8743935,44.590004 C7.52444028,39.0632013 0.205128205,34.247189 0.205128205,34.247189 C-0.256410258,33.747189 0.205128208,34.194035 0.205128208,33.694035 Z" id="Shape" fill="#F8991D"></path>
            <g id="Group-2" transform="translate(38.000000, 12.000000)" fill="#4FA3C3">
                <path d="M64.1658448,13.6254801 L61.5450017,22.3437828 C57.4994049,21.3284611 53.6991361,22.7716749 51.3217695,25.552974 L47.0706527,39.7803882 L37.9426015,39.7803882 L45.6273837,14.1068588 L53.6815466,14.1068588 L52.6641299,17.529996 C55.1479597,14.7496192 58.8713899,13.0915371 64.1658448,13.6254801" id="Fill-28"></path>
                <path d="M73.6205988,10.5239075 C70.6683315,10.5239075 68.5612885,8.70536581 69.6851682,4.90782292 C70.6183402,1.69863174 73.267882,0.41495527 75.8452141,0.41495527 C78.8521016,0.41495527 80.9600704,2.23349694 79.8361907,6.03103983 C78.8483985,9.240231 76.2516253,10.5239075 73.6205988,10.5239075 L73.6205988,10.5239075 Z M59.9026005,39.7810337 L67.5873828,14.1075043 L76.715434,14.1075043 L69.0306517,39.7810337 L59.9026005,39.7810337 Z" id="Fill-30"></path>
                <path d="M113.876971,13.3048376 C121.286801,13.3048376 121.826522,19.7776287 120.703568,23.5742494 L115.850704,39.7806648 L106.722653,39.7806648 L111.576443,23.5742494 C112.092095,21.8101164 110.96266,21.060383 109.511985,21.060383 C107.955773,21.060383 106.223665,21.9161673 104.999802,22.9858977 C104.970178,23.1998438 104.939628,23.414712 104.864641,23.5742494 L100.01085,39.7806648 L90.8837248,39.7806648 L95.7356636,23.5742494 C96.252241,21.8101164 95.1218809,21.060383 93.6730573,21.060383 C91.8474471,21.060383 89.8024303,22.2370864 88.4110043,23.7347089 L83.6349783,39.7806648 L74.5078528,39.7806648 L82.1917093,14.1071354 L90.2467979,14.1071354 L89.3645431,16.9409988 C91.4465905,15.1233793 95.0311558,13.3048376 98.5749875,13.3048376 C102.116968,13.3048376 103.954613,14.7489737 104.804466,16.7279749 C107.43827,14.8033824 110.655306,13.3048376 113.876971,13.3048376" id="Fill-32"></path>
                <path d="M139.26323,19.8844173 C136.52574,19.8844173 134.160408,21.809932 133.392948,24.2159032 L142.091444,24.2159032 C142.784843,22.7182806 142.699672,19.8844173 139.26323,19.8844173 M140.45469,13.3046532 C151.195426,13.3046532 152.715533,21.9694694 148.788434,29.6715282 L131.820998,29.6715282 C131.999671,32.6132868 135.025074,33.6295306 138.514285,33.6295306 C142.004422,33.6295306 144.656741,33.0946654 146.779522,32.1309859 L144.728951,39.0842335 C142.515445,39.94094 139.363212,40.5827782 135.175973,40.5827782 C126.692255,40.5827782 121.108036,35.2350484 123.711289,26.2483909 C126.436744,16.781277 134.495535,13.3046532 140.45469,13.3046532" id="Fill-34"></path>
                <path d="M26.156121,11.7469044 L20.1293854,11.7469044 L17.3530136,20.8949436 L23.2640285,20.8949436 C26.8226724,20.8949436 29.6397779,19.6370882 30.6303473,16.2637488 C31.7986638,12.4320852 29.0833926,11.7469044 26.156121,11.7469044 L26.156121,11.7469044 Z M27.9002639,2.59702083 C37.2560535,2.59702083 44.5714552,6.08563297 41.3238686,16.9498517 C38.2873567,27.1270453 30.7044086,30.043905 20.4876567,30.043905 L14.6331135,30.043905 L10.8587662,42.6224589 L0.241157701,42.6224589 L12.2307512,2.59702083 L27.9002639,2.59702083 Z" id="Fill-36"></path>
            </g>
        </g>
    </g>
</svg>