<svg xmlns="http://www.w3.org/2000/svg" xmlns:xlink="http://www.w3.org/1999/xlink" width="389" height="120" viewBox="0 0 389 120">
    <defs>
        <path id="a" d="M.683 1.945c.13-.841.795-1.481 1.72-1.481.43 0 .919.14 1.434.461C32.4 18.828 67.735 29.613 104.226 29.613c24.625 0 51.68-5.508 76.58-16.886 3.753-1.708 6.897 2.663 3.226 5.598-22.212 17.649-54.414 27.04-82.142 27.04-38.857 0-73.848-15.478-100.337-41.235-.52-.505-.793-1.058-.87-1.577v-.608z"/>
        <path id="c" d="M2.05 7.193C8.618 2.236 17.35.583 24.59.583c6.773 0 12.243 1.449 13.408 2.998 2.447 3.233-.63 25.645-12.551 36.334-1.824 1.655-3.56.763-2.755-1.397 2.68-7.168 8.679-23.265 5.836-27.167-2.84-3.912-18.78-1.864-25.928-.941-1.108.14-1.738-.313-1.83-.988v-.364c.075-.585.49-1.268 1.28-1.865z"/>
        <path id="e" d="M16.302 55.36c-.491 0-.896-.062-1.215-.185a1.925 1.925 0 0 1-.81-.595c-.22-.272-.428-.655-.625-1.15L1.067 20.407c-.148-.396-.27-.742-.368-1.039a2.626 2.626 0 0 1-.147-.816c0-.742.49-1.113 1.472-1.113h7.36c.784 0 1.36.148 1.73.445.367.297.649.792.845 1.484l7.58 26.27 7.729-26.27c.196-.692.478-1.187.846-1.484.368-.297.944-.445 1.73-.445h7.138c.982 0 1.472.371 1.472 1.113 0 .248-.048.52-.147.816-.098.297-.22.643-.368 1.04L25.354 53.43c-.196.495-.405.878-.626 1.15-.22.272-.478.47-.772.595-.294.123-.711.184-1.252.184h-6.402zm29.196 0c-.638 0-1.104-.148-1.399-.445-.294-.298-.441-.767-.441-1.41v-34.21c0-.693.147-1.176.441-1.448.295-.272.761-.408 1.4-.408h7.065c.686 0 1.165.136 1.435.408.27.272.404.755.404 1.448v34.21c0 .643-.135 1.112-.404 1.41-.27.297-.749.444-1.435.444h-7.066zm3.532-43.783c-1.864 0-3.36-.52-4.49-1.559-1.127-1.039-1.692-2.449-1.692-4.23 0-1.78.565-3.19 1.693-4.23C45.669.52 47.166 0 49.03 0c1.864 0 3.36.52 4.489 1.558 1.128 1.04 1.693 2.45 1.693 4.23 0 1.781-.565 3.191-1.693 4.23-1.128 1.04-2.625 1.559-4.49 1.559zm28.04 44.599c-3.189 0-5.961-.829-8.317-2.486-2.355-1.658-4.158-3.957-5.409-6.902-1.251-2.943-1.876-6.344-1.876-10.203 0-6.135 1.446-11.045 4.341-14.73 2.895-3.687 6.723-5.53 11.482-5.53 3.876 0 7.237 1.114 10.083 3.34V2.301c0-.693.147-1.176.441-1.448.295-.272.761-.408 1.398-.408h7.066c.686 0 1.165.136 1.435.408.27.272.404.755.404 1.448v51.203c0 .644-.134 1.113-.404 1.41-.27.298-.749.445-1.435.445H90.39c-.589 0-1.043-.123-1.362-.37-.318-.248-.552-.668-.699-1.262l-.441-1.707c-3.043 2.77-6.648 4.156-10.82 4.156zm3.533-8.163c2.355 0 4.612-.693 6.77-2.078v-19.59c-2.109-1.238-4.538-1.856-7.286-1.856-2.6 0-4.538.977-5.813 2.931-1.276 1.955-1.914 4.91-1.914 8.868s.674 6.901 2.024 8.831c1.35 1.93 3.422 2.894 6.219 2.894zm82.53 8.46c-5.839 0-10.402-1.769-13.69-5.306-3.287-3.538-4.93-8.472-4.93-14.805 0-6.283 1.643-11.193 4.93-14.73 3.288-3.537 7.851-5.306 13.69-5.306 5.839 0 10.401 1.769 13.688 5.306 3.288 3.537 4.932 8.447 4.932 14.73 0 6.333-1.644 11.267-4.932 14.805-3.287 3.537-7.85 5.306-13.689 5.306zm0-8.312c5.151 0 7.728-3.933 7.728-11.799 0-7.817-2.577-11.725-7.729-11.725-5.151 0-7.727 3.908-7.727 11.725 0 7.866 2.576 11.8 7.727 11.8zm-40.589-8.412c-2.738 0-5.118-.264-7.133-.797.286 3.25 1.263 5.58 2.92 6.985 1.657 1.404 4.165 2.109 7.527 2.109 1.342 0 2.653-.085 3.928-.257 1.27-.166 3.036-.546 5.294-1.123a2.65 2.65 0 0 1 .431-.11c.146-.025.26-.037.358-.037.82 0 1.226.558 1.226 1.674v3.35c0 .772-.11 1.318-.322 1.637-.218.312-.637.595-1.262.834-3.51 1.355-7.23 2.036-11.17 2.036-5.955 0-10.527-1.644-13.72-4.95-3.193-3.299-4.79-8.027-4.79-14.191 0-6.305 1.633-11.254 4.9-14.842 3.266-3.594 7.8-5.39 13.61-5.39 4.467 0 7.964 1.091 10.483 3.274 2.52 2.184 3.783 5.097 3.783 8.734 0 3.643-1.36 6.396-4.067 8.261-2.714 1.87-6.714 2.803-11.996 2.803zm1.007-15.72c-4.613 0-7.278 2.865-7.994 8.587 1.918.392 4.055.583 6.41.583 2.446 0 4.225-.375 5.33-1.129 1.105-.748 1.658-1.902 1.658-3.452 0-3.061-1.804-4.588-5.404-4.588z"/>
        <path id="g" d="M18.111 8.884c-2.56 0-4.976.67-7.244 2.002v19.527c2.168 1.339 4.584 2.008 7.244 2.008 2.76 0 4.79-.938 6.097-2.821 1.308-1.884 1.962-4.85 1.962-8.91 0-4.11-.642-7.101-1.925-8.984-1.282-1.883-3.325-2.822-6.134-2.822zM.074 3.684c0-.687.15-1.169.45-1.444.292-.276.759-.407 1.4-.407H7.25c1.134 0 1.819.544 2.068 1.633l.517 1.927c1.476-1.433 3.264-2.571 5.356-3.416 2.093-.839 4.229-1.258 6.397-1.258 4.776 0 8.557 1.758 11.34 5.269 2.785 3.516 4.18 8.264 4.18 14.258 0 4.104-.692 7.695-2.068 10.76-1.383 3.073-3.257 5.438-5.618 7.09-2.366 1.664-5.076 2.49-8.134 2.49-2.018 0-3.942-.32-5.76-.964-1.826-.644-3.377-1.533-4.66-2.671v16.254c0 .695-.136 1.176-.404 1.452-.274.268-.754.407-1.445.407H1.924c-.641 0-1.108-.139-1.4-.407-.3-.276-.45-.757-.45-1.452V3.685z"/>
        <path id="i" d="M10.951 6.651c1.968-2.177 3.83-3.723 5.58-4.642a11.882 11.882 0 0 1 5.581-1.37h1.034c.69 0 1.183.138 1.476.406.299.276.442.757.442 1.445V8.73c0 .644-.131 1.113-.405 1.413-.268.295-.747.444-1.438.444-.349 0-.791-.024-1.333-.074a23.26 23.26 0 0 0-2.068-.075c-1.134 0-2.51.162-4.142.481-1.625.326-3.002.732-4.135 1.227v24.944c0 .644-.137 1.114-.405 1.415-.274.293-.753.443-1.445.443H2.599c-.642 0-1.109-.15-1.402-.443-.298-.301-.448-.77-.448-1.415V2.866c0-.694.15-1.176.448-1.451.293-.27.76-.407 1.402-.407h5.32c1.132 0 1.824.545 2.073 1.633l.96 4.01z"/>
        <path id="k" d="M1.5 19.304c0-.695.15-1.177.443-1.446.3-.276.767-.413 1.408-.413h7.094c.691 0 1.17.137 1.439.413.274.27.411.751.411 1.446v34.223c0 .644-.137 1.119-.411 1.413-.268.295-.748.445-1.44.445H3.352c-.641 0-1.108-.15-1.408-.445-.292-.294-.442-.769-.442-1.413V19.304zm5.395-7.722c-1.875 0-3.376-.519-4.51-1.557C1.254 8.98.693 7.572.693 5.789s.56-3.19 1.694-4.229C3.519.521 5.02.002 6.896.002c1.873 0 3.374.52 4.508 1.558s1.7 2.446 1.7 4.229-.566 3.191-1.7 4.236c-1.134 1.038-2.635 1.557-4.509 1.557z"/>
        <path id="m" d="M9.888 5.469c2.61-1.733 4.964-2.96 7.056-3.673A19.8 19.8 0 0 1 23.416.713c4.434 0 7.56 1.59 9.385 4.756 2.51-1.683 4.877-2.897 7.094-3.635a21.447 21.447 0 0 1 6.87-1.12c3.45 0 6.122.97 8.021 2.897 1.894 1.933 2.847 4.63 2.847 8.096v26.208c0 .644-.137 1.114-.405 1.408-.274.3-.754.444-1.445.444H48.69c-.641 0-1.108-.144-1.401-.444-.299-.294-.448-.764-.448-1.408V14.084c0-3.366-1.501-5.05-4.51-5.05-2.66 0-5.344.64-8.053 1.928v26.953c0 .644-.137 1.114-.404 1.408-.274.3-.755.444-1.445.444h-7.094c-.642 0-1.11-.144-1.402-.444-.298-.294-.441-.764-.441-1.408V14.084c0-3.366-1.508-5.05-4.51-5.05-2.759 0-5.468.664-8.134 2.003v26.878c0 .644-.137 1.114-.405 1.408-.274.3-.753.444-1.438.444h-7.1c-.636 0-1.11-.144-1.402-.444-.292-.294-.442-.764-.442-1.408V3.685c0-.694.15-1.176.442-1.444.292-.276.766-.407 1.401-.407h5.325c1.134 0 1.82.544 2.069 1.633l.59 2.002z"/>
        <path id="o" d="M18.695 8.216c-4.733 0-7.467 2.922-8.202 8.76 1.968.4 4.16.593 6.577.593 2.51 0 4.335-.381 5.468-1.151 1.133-.763 1.7-1.94 1.7-3.522 0-3.123-1.85-4.68-5.543-4.68zm-1.034 16.036c-2.808 0-5.25-.27-7.318-.814.293 3.316 1.296 5.693 2.996 7.126 1.7 1.433 4.273 2.152 7.723 2.152 1.377 0 2.722-.088 4.03-.263 1.302-.168 3.113-.556 5.43-1.145a2.74 2.74 0 0 1 .81-.15c.84 0 1.258.57 1.258 1.709v3.416c0 .788-.112 1.344-.33 1.67-.224.319-.654.607-1.295.85-3.6 1.384-7.418 2.078-11.46 2.078-6.11 0-10.8-1.676-14.075-5.049C2.153 32.466.516 27.642.516 21.354c0-6.431 1.675-11.48 5.025-15.14 3.35-3.667 8.004-5.5 13.964-5.5 4.584 0 8.172 1.114 10.756 3.341 2.584 2.228 3.88 5.2 3.88 8.91 0 3.716-1.395 6.525-4.172 8.427-2.785 1.909-6.889 2.86-12.308 2.86z"/>
    </defs>
    <g fill="none" fill-rule="evenodd">
        <g transform="translate(93.755 73.973)">
            <mask id="b" fill="#fff">
                <use xlink:href="#a"/>
            </mask>
            <path fill="#00AAE1" d="M.592 45.37h185.141V.395H.593z" mask="url(#b)"/>
        </g>
        <g transform="translate(257.414 71.507)">
            <mask id="d" fill="#fff">
                <use xlink:href="#c"/>
            </mask>
            <path fill="#00AAE1" d="M.757 40.833H38.85V.493H.757z" mask="url(#d)"/>
        </g>
        <g transform="translate(207.247)">
            <mask id="f" fill="#fff">
                <use xlink:href="#e"/>
            </mask>
            <path fill="#FFF" d="M.493 56.515h181.293V0H.493z" mask="url(#f)"/>
        </g>
        <g transform="translate(0 15.616)">
            <mask id="h" fill="#fff">
                <use xlink:href="#g"/>
            </mask>
            <path fill="#00AAE1" d="M0 55.101h37.107V.658H0z" mask="url(#h)"/>
        </g>
        <g transform="translate(43.588 16.438)">
            <mask id="j" fill="#fff">
                <use xlink:href="#i"/>
            </mask>
            <path fill="#00AAE1" d="M.724 38.992H25.1V.625H.724z" mask="url(#j)"/>
        </g>
        <g transform="translate(72.372)">
            <mask id="l" fill="#fff">
                <use xlink:href="#k"/>
            </mask>
            <path fill="#00AAE1" d="M.658 55.43H13.19V0H.658z" mask="url(#l)"/>
        </g>
        <g transform="translate(93.755 15.616)">
            <mask id="n" fill="#fff">
                <use xlink:href="#m"/>
            </mask>
            <path fill="#00AAE1" d="M0 39.814h57.635V.658H0z" mask="url(#n)"/>
        </g>
        <g transform="translate(157.08 15.616)">
            <mask id="p" fill="#fff">
                <use xlink:href="#o"/>
            </mask>
            <path fill="#00AAE1" d="M.428 40.899h33.751V.658H.428z" mask="url(#p)"/>
        </g>
    </g>
</svg>
