<?xml version="1.0" encoding="UTF-8" standalone="no"?>
<svg
   xmlns:dc="http://purl.org/dc/elements/1.1/"
   xmlns:cc="http://creativecommons.org/ns#"
   xmlns:rdf="http://www.w3.org/1999/02/22-rdf-syntax-ns#"
   xmlns:svg="http://www.w3.org/2000/svg"
   xmlns="http://www.w3.org/2000/svg"
   viewBox="0 0 381.94666 107.56"
   height="107.56"
   width="381.94666"
   xml:space="preserve"
   id="svg2"
   version="1.1"><metadata
     id="metadata8"><rdf:RDF><cc:Work
         rdf:about=""><dc:format>image/svg+xml</dc:format><dc:type
           rdf:resource="http://purl.org/dc/dcmitype/StillImage" /></cc:Work></rdf:RDF></metadata><defs
     id="defs6" /><g
     transform="matrix(1.3333333,0,0,-1.3333333,0,107.56)"
     id="g10"><g
       transform="scale(0.1)"
       id="g12"><path
         id="path14"
         style="fill:#000000;fill-opacity:1;fill-rule:nonzero;stroke:none"
         d="m 0,394.063 c 0,217.32 166.602,363.941 386.941,363.941 184.52,0 277.274,-107.609 319.469,-204.664 L 522.93,467.91 c -17.871,54.852 -72.731,102.309 -135.989,102.309 -102.261,0 -170.82,-78.071 -170.82,-176.156 0,-98.137 68.559,-176.204 170.82,-176.204 63.258,0 118.118,47.493 135.989,102.356 L 706.41,235.82 C 665.289,141.902 571.461,30.0781 386.941,30.0781 166.602,30.0781 0,177.773 0,394.063" /><path
         id="path16"
         style="fill:#000000;fill-opacity:1;fill-rule:nonzero;stroke:none"
         d="m 1185.2,264.277 c 0,25.321 -19.03,45.34 -49.6,45.34 H 964.813 V 219.969 H 1135.6 c 30.57,0 49.6,17.914 49.6,44.308 z m -13.74,264.821 c 0,24.242 -20.02,40.086 -42.15,40.086 H 964.813 v -82.289 h 164.497 c 22.13,0 42.15,16.882 42.15,42.203 z M 751.836,42.7344 V 746.414 h 426.994 c 145.55,0 208.8,-97.055 208.8,-179.34 0,-87.582 -51.71,-146.66 -120.22,-161.429 75.87,-11.582 133.87,-81.211 133.87,-171.985 0,-98.086 -66.4,-190.9256 -207.68,-190.9256" /><path
         id="path18"
         style="fill:#000000;fill-opacity:1;fill-rule:nonzero;stroke:none"
         d="m 1412,141.902 110.71,158.243 c 52.7,-50.633 131.76,-90.719 226.67,-90.719 40.04,0 77.98,10.543 77.98,37.976 0,67.52 -392.19,-1.074 -392.19,276.399 0,119.23 99.17,233.168 292.08,233.168 114.93,0 218.23,-32.727 298.37,-98.129 l -113.9,-150.844 c -61.1,46.418 -140.17,69.633 -206.65,69.633 -42.16,0 -53.74,-13.742 -53.74,-31.652 0,-66.485 391.12,-9.516 391.12,-271.153 0,-155.097 -114.88,-244.7459 -303.66,-244.7459 -149.64,0 -251.95,44.3047 -326.79,111.8239" /><path
         id="path20"
         style="fill:#000000;fill-opacity:1;fill-rule:nonzero;stroke:none"
         d="m 2680.48,404.32 c 0,-119.269 -94.99,-214.261 -213.19,-214.261 -118.28,0 -214.17,94.992 -214.17,214.261 0,117.328 95.89,213.352 214.17,213.352 118.2,0 213.19,-96.024 213.19,-213.352 z m -583.42,0 c 56.23,-118.285 188.04,-233.668 370.23,-233.668 181.21,0 313.93,115.383 370.15,233.668 -56.22,116.379 -188.94,231.766 -370.15,231.766 -182.19,0 -314,-115.387 -370.23,-231.766 z m 767.52,0 C 2864.58,181.289 2690.16,0 2467.29,0 c -221.95,0 -398.28,181.289 -398.28,404.32 0,221.09 176.33,402.418 398.28,402.418 222.87,0 397.29,-181.328 397.29,-402.418" /></g></g></svg>