<?xml version="1.0" encoding="UTF-8"?>
<svg width="501px" height="95px" viewBox="0 0 501 95" version="1.1" xmlns="http://www.w3.org/2000/svg" xmlns:xlink="http://www.w3.org/1999/xlink">
    <!-- Generator: Sketch 47 (45396) - http://www.bohemiancoding.com/sketch -->
    <title>discovery-logo</title>
    <desc>Created with Sketch.</desc>
    <defs>
        <radialGradient cx="-49.9862429%" cy="149.976927%" fx="-49.9862429%" fy="149.976927%" r="52.4313793%" gradientTransform="translate(-0.499862,1.499769),scale(1.000000,0.655102),translate(0.499862,-1.499769)" id="radialGradient-1">
            <stop stop-color="#26A236" offset="0%"></stop>
            <stop stop-color="#007D35" offset="100%"></stop>
        </radialGradient>
        <radialGradient cx="-47.0667384%" cy="105.65%" fx="-47.0667384%" fy="105.65%" r="106.745614%" gradientTransform="translate(-0.470667,1.056500),scale(0.627927,1.000000),translate(0.470667,-1.056500)" id="radialGradient-2">
            <stop stop-color="#26A236" offset="0%"></stop>
            <stop stop-color="#007D35" offset="100%"></stop>
        </radialGradient>
        <radialGradient cx="-21.96%" cy="96.92%" fx="-21.96%" fy="96.92%" r="130.99999%" gradientTransform="translate(-0.219600,0.969200),scale(1.000000,0.686169),translate(0.219600,-0.969200)" id="radialGradient-3">
            <stop stop-color="#26A236" offset="0%"></stop>
            <stop stop-color="#007D35" offset="100%"></stop>
        </radialGradient>
        <radialGradient cx="-49.9906638%" cy="127.67%" fx="-49.9906638%" fy="127.67%" r="54.1499393%" gradientTransform="translate(-0.499907,1.276700),scale(0.394874,1.000000),translate(0.499907,-1.276700)" id="radialGradient-4">
            <stop stop-color="#26A236" offset="0%"></stop>
            <stop stop-color="#007D35" offset="100%"></stop>
        </radialGradient>
        <radialGradient cx="-49.0345427%" cy="93.69%" fx="-49.0345427%" fy="93.69%" r="75.4994321%" gradientTransform="translate(-0.490345,0.936900),scale(0.428596,1.000000),translate(0.490345,-0.936900)" id="radialGradient-5">
            <stop stop-color="#26A236" offset="0%"></stop>
            <stop stop-color="#007D35" offset="100%"></stop>
        </radialGradient>
        <radialGradient cx="-25.59%" cy="39.57%" fx="-25.59%" fy="39.57%" r="102%" gradientTransform="translate(-0.255900,0.395700),scale(0.452463,1.000000),translate(0.255900,-0.395700)" id="radialGradient-6">
            <stop stop-color="#26A236" offset="0%"></stop>
            <stop stop-color="#007D35" offset="100%"></stop>
        </radialGradient>
        <radialGradient cx="-49.0011018%" cy="148.995416%" fx="-49.0011018%" fy="148.995416%" r="11.5306759%" gradientTransform="translate(-0.490011,1.489954),scale(1.000000,0.821596),translate(0.490011,-1.489954)" id="radialGradient-7">
            <stop stop-color="#26A236" offset="0%"></stop>
            <stop stop-color="#007D35" offset="100%"></stop>
        </radialGradient>
    </defs>
    <g id="Page-1" stroke="none" stroke-width="1" fill="none" fill-rule="evenodd">
        <g id="discovery-logo" transform="translate(0.000000, -1.000000)">
            <g id="g2993" transform="translate(251.000000, 48.000000) scale(-1, 1) rotate(-180.000000) translate(-251.000000, -48.000000) ">
                <g id="g4764" transform="translate(0.054272, 0.041540)">
                    <path d="M217.294618,33.870697 C208.084829,33.870697 201.585132,41.4086641 201.585132,50.8307791 C201.585132,59.9836646 207.950063,67.5202558 216.753246,67.5202558 C222.711109,67.5202558 226.63825,64.9628049 230.431086,61.0601239 L237.879223,69.0012473 C233.004565,74.3849198 226.7744,78.020206 216.888012,78.020206 C201.043298,78.020206 189.53187,65.5012639 189.53187,50.5601736 C189.53187,35.6190834 201.043298,23.5046735 216.753246,23.5046735 C226.910551,23.5046735 233.004565,27.5431159 238.151063,33.330862 L230.97292,40.3308289 C227.181468,36.5620746 222.982949,33.869321 217.294618,33.869321" id="path3795" fill="#000000"></path>
                    <path d="M178.698426,50.5615496 C177.208152,51.6380089 175.447423,52.7144682 173.551467,53.5216981 C171.519821,54.1954598 169.624326,55.0026896 167.728369,55.5420659 C166.102407,56.0805249 164.748284,56.6189839 163.259395,57.0216815 C161.903888,57.5601405 160.550226,57.964214 159.466559,58.502673 C158.383353,59.1746001 157.571064,59.7144351 156.893541,60.5216649 C156.216941,61.1954266 155.810335,62.0026564 155.810335,62.945189 L155.810335,63.0791157 C155.810335,64.5601073 156.487858,65.7714107 157.70583,66.8483287 C159.061337,67.7908612 160.956832,68.3288615 163.259395,68.3288615 C165.425807,68.3288615 167.728369,67.924788 170.436615,66.9831727 C173.010095,66.0406402 175.583112,64.9641809 178.020441,63.3483452 L182.896483,71.9627717 C180.052548,73.7129927 176.937235,75.1935256 173.551467,76.269985 C170.165698,77.3464443 166.91608,77.8849033 163.530312,77.8849033 C160.956832,77.8849033 158.518119,77.481747 156.216941,76.6745172 C153.914378,76.0007555 151.882733,74.9242961 150.257693,73.57769 C148.496964,72.2320012 147.142841,70.4817802 146.194402,68.598091 C145.247346,66.5790992 144.705513,64.4248046 144.705513,61.8673537 L144.705513,61.7334269 C144.705513,59.1746001 145.247346,57.0216815 146.194402,55.2719191 C147.278992,53.6570008 148.496964,52.1764679 150.122004,51.1000086 C151.611816,49.8882465 153.507772,48.945714 155.404652,48.2719523 C157.434913,47.4647225 159.331793,46.7923367 161.227749,46.2529604 C162.718023,45.8498042 164.20645,45.4457306 165.696724,44.9072716 C167.050846,44.503198 168.404969,44.1000418 169.488175,43.4262801 C170.572766,42.8882797 171.385055,42.3498207 172.061655,41.5425909 C172.739178,40.8692879 173.010095,39.9276726 173.010095,38.9851401 L173.010095,38.8498373 C173.010095,37.1014509 172.197344,35.7543861 170.843221,34.6779268 C169.488175,33.6014675 167.457453,33.1969353 164.748284,33.1969353 C162.040038,33.1969353 159.196103,33.7353943 156.216941,34.8118536 C153.373006,35.8896889 150.392459,37.5046072 147.549909,39.6575258 L142.132033,31.4471729 C145.517802,28.889722 149.174487,26.8707302 152.965939,25.5250414 C156.893541,24.3132793 160.685915,23.6413522 164.477367,23.6413522 C167.186997,23.6413522 169.894781,23.9105817 172.197344,24.7178115 C174.634673,25.3897386 176.66678,26.3327298 178.427509,27.8132627 C180.187315,29.1589515 181.540976,30.7747872 182.625566,32.7942377 C183.573083,34.9471563 184.114455,37.3706804 184.114455,40.0615994 L184.114455,40.3308289 C184.114455,42.6204262 183.573083,44.6380421 182.625566,46.2543364 C181.540976,48.0027228 180.323004,49.3497876 178.698426,50.5615496" id="path3797" fill="#000000"></path>
                    <polyline id="path3799" fill="#000000" points="121.953573 24.5825088 134.006373 24.5825088 134.006373 76.9423707 121.953573 76.9423707"></polyline>
                    <path d="M77.8047385,94.3065264 L51.8027192,94.3065264 L51.8027192,84.7509433 C56.6773767,82.0581897 60.8758958,78.4242795 64.1268982,73.9817636 L64.1268982,83.2699518 L77.8047385,83.2699518 C92.5657847,83.2699518 102.046952,73.3084605 102.046952,59.5791323 C102.046952,45.8498042 92.5657847,36.1589184 77.8047385,36.1589184 L67.1055991,36.1589184 C65.0739534,31.8517051 62.0947909,28.0824922 58.5733332,24.9856651 L77.8047385,24.9856651 C99.7443894,24.9856651 114.911119,40.1955261 114.911119,59.7144351 C114.911119,79.3658948 99.7430048,94.3065264 77.8047385,94.3065264" id="path3801" fill="#000000"></path>
                    <path d="M488.013489,76.9423707 L474.470415,38.5810665 L461.875319,76.9423707 L449.010229,76.9423707 L468.511167,24.9856651 L468.376401,24.5825088 C468.376401,24.5825088 464.448798,14.0825586 460.928264,11.5255664 C458.084329,10.0459508 451.718013,10.1798776 449.280684,10.3151803 L449.280684,0.488533119 C453.479204,0.488533119 463.500359,0.354606352 466.751361,2.37268092 C470.813729,4.79620501 471.626018,6.0075084 474.470415,11.5255664 C477.4505,17.5839179 500.473357,76.9423707 500.473357,76.9423707" id="path3803" fill="#000000"></path>
                    <path d="M424.905089,68.3274856 L424.905089,76.9423707 L412.852289,76.9423707 L412.852289,24.5825088 L424.905089,24.5825088 L424.905089,44.503198 C424.905089,48.0027228 425.310772,51.1000086 426.259212,53.6556248 C429.915898,63.2130425 439.937053,65.9053374 445.218778,66.7130259 L441.156409,76.6731412 C436.958352,75.9998382 429.50883,73.9803876 424.905089,68.3274856" id="path3805" fill="#000000"></path>
                    <path d="M289.2062,70.0790826 C286.768871,72.5012307 283.788786,74.5202226 280.403017,75.8659114 C277.017249,77.3464443 273.225797,78.020206 269.162506,78.020206 C269.162506,78.020206 269.162506,78.020206 269.162506,78.020206 L269.162506,67.5202558 C271.465068,67.5202558 273.632865,67.1170995 275.52836,66.1745669 C277.560006,65.2334103 279.185045,64.1555751 280.539168,62.5406568 C282.029442,61.0601239 283.112647,59.3099028 283.924937,57.1569842 C284.737226,55.1379923 285.142909,52.9836977 285.142909,50.6954764 L285.142909,50.5615496 C285.142909,48.2719523 284.737226,46.1190336 284.059703,44.1000418 C283.383103,42.0810499 282.163746,40.3308289 280.810085,38.8498373 C279.455962,37.2353777 277.830922,36.1589184 275.799277,35.2163858 C273.903782,34.2738533 271.601219,33.870697 269.162506,33.870697 C269.162506,33.870697 269.162506,33.870697 269.162506,33.870697 L269.162506,23.3707468 C273.089646,23.3707468 276.882483,24.1784352 280.268251,25.5250414 C283.65402,27.0060329 286.633182,29.0250248 289.2062,31.4471729 C291.643529,34.0046238 293.675636,36.8308455 295.029297,40.1955261 C296.519571,43.4262801 297.197094,47.0615662 297.197094,50.6954764 L297.197094,50.8307791 C297.197094,54.598616 296.519571,58.2334435 295.165448,61.4641974 C293.675636,64.6949514 291.77968,67.6555585 289.2062,70.0790826 L289.2062,70.0790826 Z M269.162506,78.020206 C265.100137,78.020206 261.443452,77.2125175 258.057683,75.8659114 C254.537149,74.3862958 251.693214,72.5012307 249.119734,69.9437798 C246.682406,67.5202558 244.65076,64.5601073 243.296637,61.3293534 C241.806364,57.964214 241.128841,54.4646893 241.128841,50.6954764 L241.128841,50.5615496 C241.128841,46.7923367 241.806364,43.2923533 243.160486,39.9267553 C244.65076,36.6969187 246.546255,33.7353943 248.983584,31.3132461 C251.557063,28.889722 254.537149,27.0060329 257.921994,25.5250414 C261.307763,24.1793526 264.963987,23.3707468 269.02774,23.3707468 C269.02774,23.3707468 269.02774,23.3707468 269.162506,23.3707468 L269.162506,33.870697 C266.861328,33.870697 264.693531,34.2738533 262.797575,35.2163858 C260.90208,36.1589184 259.140889,37.2353777 257.651077,38.8498373 C256.296955,40.3308289 255.213749,42.215894 254.400998,44.2339685 C253.588709,46.2543364 253.182103,48.407255 253.182103,50.6954764 L253.182103,50.8307791 C253.182103,53.2529272 253.588709,55.4072218 254.266693,57.4262137 C255.078982,59.3099028 256.026038,61.1954266 257.516311,62.6745835 C258.870434,64.1555751 260.495012,65.2334103 262.526658,66.1745669 C264.422614,67.1170995 266.590411,67.5202558 269.02774,67.5202558 C269.02774,67.5202558 269.02774,67.5202558 269.162506,67.5202558 L269.162506,78.020206 Z" id="path3807" fill="#000000"></path>
                    <path d="M397.548024,69.5392476 C395.381612,72.2320012 392.808133,74.2509931 389.693281,75.7319846 C386.443202,77.2116002 382.786978,78.020206 378.588459,78.020206 C378.588459,78.020206 378.452308,78.020206 378.452308,78.020206 L378.452308,68.1935588 C378.452308,68.1935588 378.452308,68.1935588 378.588459,68.1935588 C380.484415,68.1935588 382.37991,67.924788 383.870184,67.1170995 C385.494762,66.4451724 386.714119,65.5026398 387.932091,64.2908778 C389.016681,63.0791157 389.963737,61.5981242 390.641721,59.8483618 C391.183093,58.2334435 391.724927,57.5601405 391.859693,55.6759927 L378.452308,55.6759927 L378.452308,46.5235659 L403.642038,46.5235659 C403.642038,47.0615662 403.777728,47.7348693 403.777728,48.2733282 C403.912494,48.8117872 403.912494,49.3497876 403.912494,49.8882465 C403.912494,53.6570008 403.371121,57.290911 402.287916,60.6569676 C401.20471,64.0216483 399.57967,66.9831727 397.548024,69.5406236 L397.548024,69.5392476 L397.548024,69.5392476 Z M378.452308,23.5060495 C378.859376,23.3721227 379.401209,23.3721227 379.942582,23.3721227 C384.818624,23.3721227 389.016681,24.3132793 392.401065,26.0635003 C395.922985,27.8132627 398.902147,30.2367868 401.475626,33.1983112 L394.433173,39.524975 C392.266299,37.3706804 390.099887,35.8896889 387.932091,34.8132295 C385.630913,33.7367702 383.057433,33.1983112 380.077348,33.1983112 C379.535976,33.1983112 378.994142,33.1983112 378.452308,33.333614 L378.452308,23.5074255 L378.452308,78.0215819 C374.661318,78.0215819 371.410316,77.2138935 368.295002,75.8682047 C365.180151,74.5215985 362.471905,72.502148 360.169343,70.0804585 C357.868165,67.6569344 356.107436,64.6963273 354.888079,61.4655734 C353.533956,58.1008927 352.856433,54.6009093 352.856433,50.8321551 L352.856433,50.5629256 C352.856433,46.5244832 353.533956,42.8896557 355.02423,39.524975 C356.377891,36.1602943 358.273848,33.333614 360.711176,30.9100899 C363.14989,28.6218685 365.993824,26.7381794 369.379593,25.3924906 C372.087839,24.3146553 375.20269,23.6427282 378.452308,23.5074255 L378.452308,33.333614 C375.20269,33.6028435 372.493522,34.6793028 370.056193,36.6982947 C367.347947,38.986516 365.587218,42.2172699 364.909234,46.5244832 L378.452308,46.5244832 L378.452308,55.6773686 L364.909234,55.6773686 C365.452452,59.8497378 366.94088,61.8687297 369.379593,64.4261805 C371.680771,66.9845487 374.661318,68.1949348 378.452308,68.1949348 L378.452308,78.0215819 L378.452308,23.5074255 L378.452308,23.5060495 Z" id="path3809" fill="#000000"></path>
                    <polyline id="path3811" fill="#000000" points="324.824153 38.4471397 310.603094 76.9437467 297.737543 76.9437467 319.406277 24.1793526 330.240183 24.1793526 351.77415 76.9437467 339.043365 76.9437467"></polyline>
                    <path d="M53.969131,77.6156738 C54.1038972,78.6921331 53.4277588,79.9038951 52.2084022,80.5771982 C51.2599624,80.9803544 50.1767564,80.9803544 49.5001566,80.711125 C44.624576,83.4038785 39.0719341,85.0187968 33.2488368,85.0187968 C30.404902,85.0187968 27.5605057,84.6156406 24.9874877,83.9418789 C23.768131,84.0771816 22.6849251,83.8084108 22.1430914,83.134649 C9.54845702,78.5582063 0.474357334,66.5790992 0.474357334,52.5791655 C0.474357334,48.1380255 1.42279713,43.8308123 3.183526,39.7928285 C3.0478368,39.523599 3.0478368,39.2543696 3.0478368,38.8498373 C3.0478368,37.3706804 3.9962766,36.0236156 5.75700547,34.9471563 C11.3091859,26.3327298 20.9251193,20.5445251 32.0294801,20.1399928 C32.4365477,19.7368366 32.9783815,19.332763 33.7906705,19.332763 C35.0086426,19.0635335 36.2279993,19.4680657 36.7693715,20.2752956 C53.156842,22.025058 65.8862425,35.8896889 65.8862425,52.5791655 C65.8862425,62.6745835 61.2811173,71.6935422 53.968208,77.6156738" id="path3813" fill="#009EDE"></path>
                    <path d="M34.1972766,76.1346822 C33.9268213,76.269985 33.5197537,76.269985 33.1140707,76.4039117 C32.0294801,76.5392144 30.9462742,76.5392144 29.5921514,76.5392144 C31.2171911,76.5392144 32.7074646,76.5392144 34.1972766,76.1346822 L43.5409086,37.3693044 C38.6667126,34.4073214 32.5713139,32.9281644 27.0191334,33.869321 C23.6333649,34.5426241 21.0598854,36.1589184 19.3000796,38.4457638 C19.4348458,38.311837 19.5709965,38.311837 19.5709965,38.311837 C20.9251193,37.2353777 22.4153928,36.1575424 24.039971,35.3503126 C29.4578468,32.7928617 35.9570824,33.196018 40.6983583,36.8308455 C45.302099,40.3308289 48.4169506,46.1176577 49.6363073,52.175092 C50.178141,53.1176245 50.5833625,54.1954598 50.7195132,55.4058459 C51.5318023,53.7909276 52.073636,52.175092 52.073636,50.2909442 C52.2084022,44.7719689 48.0103446,40.1955261 43.5409086,37.3693044" id="path3815" fill="#59BAED"></path>
                    <path d="M19.0296243,50.4262469 C20.1128302,49.3497876 21.3321869,48.5425577 22.6858482,47.7339519 C21.6026422,47.868796 20.6542024,48.1380255 19.7057626,48.5411818 C19.4348458,49.2144848 19.1643904,49.7529438 19.0296243,50.4262469" id="path3817" fill="#59BAED"></path>
                    <path d="M26.0716167,56.6176079 C24.445654,56.6176079 22.144476,57.290911 21.6026422,58.7719025 C21.8735591,58.9058293 22.0083252,59.041132 22.2792421,59.1746001 C24.445654,55.8099194 29.1869299,56.2144517 31.3533418,59.5791323 C31.0824249,59.1746001 30.9462742,58.7719025 30.6758189,58.3673703 C29.7283021,56.7529106 27.6966564,56.6189839 26.0716167,56.6189839" id="path3819" fill="#59BAED"></path>
                    <path d="M55.5941707,59.7144351 C54.5109648,61.4628215 53.0206912,62.8098863 51.3961131,64.0216483 C51.3961131,66.9822554 50.8542794,70.0790826 49.6349227,72.9039283 C47.197594,78.4229036 40.9678906,81.5188134 35.1447933,82.461346 C20.9251193,84.8848701 7.38204514,77.0776734 5.21563326,62.27051 C4.26673194,56.2130757 5.4860886,50.0221733 9.41369087,45.3118038 C9.54845702,44.9072716 9.82029694,44.503198 10.0912138,44.1000418 C11.3091859,37.100075 16.0490772,30.7738698 23.362448,28.216419 C35.0100272,24.4472061 50.0419903,30.7738698 56.0012383,41.2733614 C59.3870068,46.9262635 59.2508561,54.1954598 55.5941707,59.7144351" id="path3821" fill="#59BAED"></path>
                    <path d="M32.1656309,37.5046072 C29.999219,35.8896889 27.5605057,34.1385505 25.2593276,32.6589349 C26.0716167,33.4661648 27.0191334,34.4073214 27.9675732,35.3503126 C29.5921514,36.5620746 31.3533418,37.773378 32.9783815,39.1190668 C32.7074646,38.5810665 32.4365477,38.0426075 32.1656309,37.5046072 L32.1656309,37.5046072 Z M58.5742562,57.5601405 C58.438567,57.6954432 58.1676502,57.82937 58.032884,57.964214 C58.3038009,58.2334435 58.7090224,58.3673703 58.9799393,58.6365998 C58.8451731,58.2334435 58.7090224,57.964214 58.5742562,57.5601405 L58.5742562,57.5601405 Z M51.5318023,59.8483618 C51.3961131,59.7144351 51.261347,59.7144351 51.1251962,59.5791323 C50.9904301,59.5791323 50.7195132,59.5791323 50.5833625,59.7144351 C51.1251962,60.7908944 51.6665684,62.0026564 52.2084022,63.2144185 C52.751159,62.6759595 53.4277588,62.0026564 53.969131,61.3302707 C53.156842,60.9261971 52.2084022,60.3877381 51.5318023,59.8497378 L51.5318023,59.8483618 L51.5318023,59.8483618 Z M44.4898099,68.598091 C43.6770593,68.1949348 43.9479761,68.4641643 43.9479761,68.4641643 C43.6770593,68.4641643 43.5409086,68.598091 43.5409086,68.7333938 C43.5409086,68.7333938 43.5409086,68.8673205 43.6770593,69.0026233 C44.3536592,70.3478534 44.7602652,71.6949182 44.8964159,73.1745338 C45.9796219,73.1745338 46.114388,72.7713775 46.114388,72.0980744 C45.9796219,70.7523856 45.1673328,69.0026233 44.4898099,68.598091 L6.16407306,61.3302707 C6.16407306,61.1954266 6.16407306,61.1954266 6.16407306,61.0614998 C6.16407306,60.3877381 6.2988392,59.7144351 6.57067912,59.041132 C6.16407306,59.3099028 5.89315619,59.5791323 5.62223933,59.7144351 C5.62223933,59.8483618 5.62223933,59.9836646 5.62223933,59.9836646 C5.75700547,60.3877381 5.89315619,60.7908944 6.16407306,61.3293534 L44.4898099,68.598091 L44.4898099,68.598091 Z" id="path3823" fill="#FAF7F7"></path>
                    <g id="g3825" transform="translate(15.958618, 57.977464)" fill="url(#radialGradient-1)">
                        <g id="g3827" transform="translate(0.000000, -0.000000)">
                            <g id="g3833" transform="translate(0.000000, -0.000000)">
                                <path d="M2.25825593,12.6396192 C4.55943394,14.1192348 6.7272304,14.7925379 9.16455915,15.8703731 C9.70639288,16.0042999 11.8728048,16.9468325 11.6018879,16.2735294 C9.8425436,15.3309968 8.21611935,14.3898403 6.59154121,13.312005 C4.96650153,12.3703897 3.34146186,11.4278572 1.71688372,10.6206274 C1.98733906,11.0237836 1.98733906,12.2355457 2.25825593,12.6396192 L2.66393893,1.60166866 C3.476228,1.73697139 1.71688372,0.255979849 1.44596685,0.120677123 C1.44596685,0.120677123 1.44596685,0.120677123 1.44596685,0.120677123 C1.03889926,0.120677123 -0.0443066766,0.928365602 2.66393893,1.60166866" id="path3841"></path>
                            </g>
                        </g>
                    </g>
                    <g id="g3843" transform="translate(26.189175, 65.150530)" fill="url(#radialGradient-2)">
                        <g id="g3845" transform="translate(-0.000000, -0.000000)">
                            <g id="g3851" transform="translate(-0.000000, -0.000000)">
                                <path d="M2.72545306,2.5050286 C3.13252065,2.63895536 3.67389286,2.77425809 4.08096045,2.90818486 C4.62233265,3.1769557 5.29893253,3.44756115 5.84030473,3.58148792 C5.02801566,3.1769557 4.35187732,2.77425809 3.81004358,2.36972587 C2.72545306,1.56249604 1.77839785,1.02403706 0.829958051,0.350733999 C0.829958051,0.350733999 0.829958051,0.486036725 0.695191909,0.486036725 C1.23656411,1.02403706 1.64224712,1.56249604 2.04931471,2.10049638 C2.31977005,2.23442314 2.45453619,2.36972587 2.72545306,2.50365264" id="path3859"></path>
                            </g>
                        </g>
                    </g>
                    <g id="g3861" transform="translate(28.189175, 60.563997)" fill="url(#radialGradient-3)">
                        <g id="g3863" transform="translate(-0.000000, 0.000000)">
                            <g id="g3869" transform="translate(-0.000000, 0.000000)">
                                <path d="M1.94480972,0.630053864 C1.40297599,0.496127098 0.861603786,0.496127098 0.454536194,0.360824371 C0.997754511,1.03412743 1.40297599,1.70651318 1.81004358,2.64904574 C2.08096045,2.91827523 2.35187732,3.0531193 2.48664346,3.3223488 C2.35187732,2.37981624 2.08096045,1.43865965 1.94480972,0.630053864" id="path3877"></path>
                            </g>
                        </g>
                    </g>
                    <g id="g3879" transform="translate(40.035012, 42.217864)" fill="url(#radialGradient-4)">
                        <g id="g3881" transform="translate(-0.000000, -0.000000)">
                            <g id="g3887" transform="translate(-0.000000, -0.000000)">
                                <path d="M1.47563556,1.47764518 C4.31864731,2.5541045 7.16258212,3.76724251 10.1431292,4.84370183 C10.1431292,4.84370183 10.2778953,4.57447233 10.2778953,4.57447233 C10.2778953,4.43962826 10.2778953,4.43962826 10.2778953,4.30570149 C7.02781597,3.09393945 3.64204743,1.8821774 0.391045035,0.939644849 C0.663346486,1.07448892 1.06902949,1.34371842 1.47563556,1.47764518" id="path3895"></path>
                            </g>
                        </g>
                    </g>
                    <g id="g3897" transform="translate(49.265569, 41.217864)" fill="url(#radialGradient-5)">
                        <g id="g3899">
                            <g id="g3905">
                                <path d="M2.67191583,1.93964485 C2.94283269,2.07448892 3.21374956,2.20841569 3.48466643,2.34371842 C4.16218936,2.34371842 4.70356156,2.47764518 5.38016144,2.47764518 C6.19383509,2.61294791 6.87043497,2.8821774 7.5479579,3.01610417 C6.73566882,2.61294791 5.78722903,2.20841569 4.8383277,1.80571808 C3.48466643,1.2672591 2.13054362,0.593956037 0.776420817,0.0554970505 C0.776420817,0.190799777 0.776420817,0.190799777 0.640270091,0.324726544 C1.31779302,0.86318553 1.9943929,1.40118586 2.67191583,1.93964485" id="path3913"></path>
                            </g>
                        </g>
                    </g>
                    <g id="g3915" transform="translate(49.265569, 32.044798)" fill="url(#radialGradient-6)">
                        <g id="g3917">
                            <g id="g3923">
                                <path d="M2.67191583,1.28606388 C1.9943929,0.883366275 0.234587083,0.478834056 0.234587083,0.478834056 C0.234587083,0.478834056 1.18210382,1.28606388 1.58870989,1.55529337 C1.9943929,1.6905961 2.67191583,1.6905961 2.67191583,1.6905961 C2.67191583,1.6905961 3.21374956,1.55529337 2.67191583,1.28606388" id="path3931"></path>
                            </g>
                        </g>
                    </g>
                    <g id="g3933" transform="translate(4.112781, 18.285199)" fill="url(#radialGradient-7)">
                        <g id="g3935" transform="translate(-0.000000, 0.000000)">
                            <g id="g3941" transform="translate(-0.000000, 0.000000)">
                                <path d="M4.75907583,47.7554413 C5.02999269,47.7554413 5.30090956,47.7554413 5.4356757,47.7554413 C6.11319863,47.7554413 6.3841155,47.7554413 6.65503236,46.8129088 C6.92594923,45.7364494 6.92594923,44.2554579 7.06163843,43.1789986 C7.19640457,40.3514009 7.60347216,38.1984823 9.90603476,36.4482613 C10.1769516,36.0441877 12.6142804,34.9677284 12.6142804,35.2364992 C13.0195019,34.0261131 12.8847357,32.9482778 13.8331755,32.0071213 C14.916843,31.0645887 15.8638982,30.3912856 17.2194056,30.2573589 C18.5730669,29.9881294 19.7910389,30.2573589 21.0103956,29.4496704 C23.4477243,28.1044402 24.9379979,27.4306785 27.7819327,27.5646053 C29.6778892,27.8338348 31.9804518,28.6424406 32.7927409,26.488146 C33.4702638,24.8732277 33.8759468,23.5279975 34.8243866,22.4501622 C35.6371372,18.9515548 39.6990441,18.5470226 42.9500465,17.7397927 C43.0848126,17.60449 43.0848126,17.60449 43.2209634,17.60449 C43.2209634,17.3352605 43.0848126,17.066031 43.0848126,16.7972602 C42.9500465,15.7208009 42.6795912,14.6443415 42.5434404,13.5665063 C42.5434404,12.3561202 42.6795912,11.1443581 43.3557295,10.2018256 C43.3557295,10.2018256 43.3557295,10.2018256 43.3557295,10.2018256 C41.4602345,8.18237505 38.6158382,8.18237505 35.9075926,8.31767778 C34.4177806,8.72083404 32.7927409,8.99006353 31.1681627,9.12490761 C27.5114773,9.3941371 24.2604749,7.91360421 22.5006691,4.95162114 C21.5522293,4.54846488 20.7399403,4.01046454 20.4690234,2.93262927 C22.9063521,2.39417028 25.3450655,1.99147267 27.9166988,1.85616995 C28.3237664,1.45301369 28.8656001,1.04894012 29.6778892,1.04894012 C30.8972459,0.779710627 32.115218,1.18378419 32.6579747,1.99147267 C38.074466,2.66339977 42.9500465,4.4136208 47.1485656,7.2398425 C47.419021,7.77830149 47.5537871,8.18237505 47.419021,8.58553131 C47.6899379,8.72083404 47.9608547,8.99006353 48.0956209,9.12490761 C48.2317716,9.25883437 48.2317716,9.3941371 48.3679223,9.3941371 C51.3466233,10.2018256 52.0241462,13.7013503 52.1589123,16.392728 C52.2950631,17.7384168 52.1589123,19.0854815 52.4298292,20.2972436 C52.9716629,22.585465 54.4614749,24.4691541 54.5962411,26.8926782 C54.5962411,27.5646053 54.4614749,28.238367 54.3257857,28.7763673 L54.3257857,29.0455968 C54.3257857,29.1808996 54.3257857,29.3148263 54.3257857,29.4496704 C54.3257857,30.5265884 53.9201027,31.4691209 53.2421183,32.141048 C52.7007461,32.680883 52.1589123,32.9496538 51.4813894,32.9496538 C51.0757064,33.0835806 50.8052511,33.0835806 50.3981835,33.0835806 C50.3981835,33.0835806 50.3981835,33.0835806 50.3981835,33.0835806 C50.2634173,33.0835806 50.2634173,33.0835806 50.1272666,32.9496538 C49.4511282,33.3528101 48.5026885,33.7573423 47.5537871,33.8912691 C45.929209,34.4292694 44.3041693,34.5645721 42.6795912,33.8912691 C41.7306898,33.4881128 40.9184008,32.9496538 40.2408778,32.2763507 C39.1576719,31.3338182 37.8035491,31.4691209 36.585577,31.3338182 C36.1785094,31.3338182 35.9075926,31.3338182 35.5009865,31.1998914 C34.4177806,32.141048 33.0636578,32.5455802 31.5733842,32.8148097 C30.626329,32.9496538 29.6778892,32.8148097 28.5946833,32.680883 C27.5114773,32.5455802 26.4282714,32.4102775 25.3450655,32.680883 C24.3961641,32.8148097 23.3129582,33.8912691 22.3645184,34.4292694 C21.9588354,34.5645721 21.6883801,34.5645721 21.2813125,34.6984989 C21.9588354,35.9102609 23.3129582,36.7174907 24.2604749,37.5260965 C26.1573545,39.0057121 27.1044097,38.6025559 29.2722062,37.795326 C31.7095349,36.8527935 33.3345746,40.2174742 31.7095349,41.9672365 C30.8972459,42.6409983 30.626329,42.774925 30.8972459,43.8513843 C31.1681627,45.0631464 31.5733842,46.2749084 31.4386181,47.6201386 C31.3024674,48.5631298 30.8972459,49.5042864 30.626329,50.4468189 C30.4901783,50.8513512 31.7095349,52.331884 32.115218,52.7364163 C33.3345746,54.2160318 33.4702638,55.9657942 31.5733842,57.1775563 C31.1681627,57.4467858 30.626329,57.7155566 30.0844953,57.8508593 C30.8972459,58.2540156 31.5733842,58.6585478 32.2513687,59.1965481 C33.7411807,60.1390807 35.2300696,60.9467692 36.8564939,61.3508427 C38.2101552,61.0816132 39.564278,61.21554 40.7836346,62.0232285 C41.5959237,62.4273021 41.8668406,63.2349905 42.0016067,64.1775231 C37.9396998,65.7919827 33.60503,66.7345153 29.1360555,66.7345153 C26.2921207,66.7345153 23.4477243,66.3318177 20.8747064,65.658056 C19.6562728,65.7919827 18.5730669,65.5232119 18.0316946,64.8508261 C15.8638982,64.0435963 13.8331755,63.1010638 11.8015298,61.8893017 C11.665379,61.21554 11.665379,60.4083102 12.2072128,59.6010804 C12.3433635,59.3318509 12.4781296,59.1965481 12.6142804,58.9273186 C12.6142804,58.7933919 12.4781296,58.6585478 12.3433635,58.3893183 C11.5306129,57.986162 10.85309,57.312859 10.0408009,56.6390973 C9.49896717,55.8318675 8.95759497,55.0246376 8.14484437,54.4861786 C8.14484437,54.0821051 8.00915517,54.0821051 7.60347216,54.6201054 C7.60347216,54.6201054 7.46732144,54.7554081 7.46732144,54.7554081 C7.87438903,55.562638 8.14484437,56.3703264 8.14484437,57.5820885 C8.14484437,58.1200888 8.00915517,58.3893183 7.7382383,58.7933919 C4.89384197,56.3703264 2.45651323,53.4097193 0.561018215,50.1789654 C1.50807343,48.6979739 2.86358082,48.0246708 4.75907583,47.7554413" id="path3949"></path>
                            </g>
                        </g>
                    </g>
                </g>
            </g>
        </g>
    </g>
</svg>