<svg xmlns="http://www.w3.org/2000/svg" width="70" height="23" viewBox="0 0 70 23">
    <g fill="none" fill-rule="nonzero">
        <path fill="#A6AAAB" d="M57.298 0l7.739.018.441 4.878 2.61-4.878H70L65.79 7.17l-1.617.019L63.162.22l.205 1.265-2.613.019-1.416 5.665-1.783.019 1.36-5.666-2.04.037z"/>
        <path fill="#FF7F00" d="M.106 9.674L.958 5.58l2.378.052C4.057 1.18 7.05-.53 12.154.141l-.781 4.075-1.916-.035C8.508 4.217 8 4.728 7.86 5.633l2.484-.017-.78 4.04-2.538.035-2.573 12.91L0 22.618 2.537 9.656l-2.43.018zM11.802 5.44h4.684l-1.792 9.096c-.354 1.924-.727 4.058 1.597 4.46.645.092 1.308.002 1.936-.288 1.892-.874 2.352-2.723 2.735-4.58l1.788-8.67 4.488-.018-3.442 17.055-4.116.053.178-.84c-2.738 1.78-6.067 1.541-8.054.248-1.929-1.34-2.369-3.69-1.885-6.663l1.883-9.853zM25.32 22.55l4.4-.018.266-1.382c2.703 2.88 8.883 1.93 11.036.035-1.186-1.198-1.689-2.62-1.88-4.145-1.532 1.97-4.537 2.21-6.086 1.032-1.455-1.02-1.832-3.052-1.454-4.813.342-1.59 1.402-2.999 2.95-3.61 1.83-.725 4.026-.262 5.104 1.146 1.814 2.91.356 5.33 1.625 7.937.755 1.552 2.245 2.869 3.83 3.542 1.908.81 4.238.966 6.395.348 2.533-.726 4.615-2.523 5.764-4.854 1.366-2.773 1.462-6.195.028-8.768-2.374-4.258-8.828-5.298-12.816-2.28 1.004 1.225 1.456 2.628 1.774 4.11 1.656-2.157 4.856-1.9 6.352-.595 1.284 1.115 1.642 3.721.679 5.772-.747 1.59-2.109 2.45-3.83 2.713-3.031.463-4.65-1.943-4.798-4.444-.034-2.496-.238-4.294-1.173-5.747-.643-1-1.683-1.911-2.748-2.45-2.306-1.17-5.549-1.254-7.789.116l1.19-6.018L29.718.16l-4.4 22.39z"/>
    </g>
</svg>
