<?xml version="1.0" encoding="UTF-8"?>
<svg width="142px" height="32px" viewBox="0 0 142 32" version="1.1" xmlns="http://www.w3.org/2000/svg" xmlns:xlink="http://www.w3.org/1999/xlink">
    <!-- Generator: Sketch 49 (51002) - http://www.bohemiancoding.com/sketch -->
    <title>logo</title>
    <desc>Created with Sketch.</desc>
    <defs>
        <linearGradient x1="-1.11022302e-14%" y1="50%" x2="100%" y2="50%" id="linearGradient-1">
            <stop stop-color="#049B64" offset="0%"></stop>
            <stop stop-color="#5CC738" offset="100%"></stop>
        </linearGradient>
    </defs>
    <g id="Symbols" stroke="none" stroke-width="1" fill="none" fill-rule="evenodd">
        <g id="block/navbar2" transform="translate(-16.000000, -8.000000)">
            <g id="Group-4">
                <g id="logo" transform="translate(16.000000, 8.000000)">
                    <rect id="Rectangle-2" stroke="url(#linearGradient-1)" stroke-width="2" x="1" y="1" width="140" height="30" rx="2.46153846"></rect>
                    <path d="M10,20.8381814 L10,10.8541263 C10,7.90303814 11.4659339,6 14.4254609,6 C17.412647,6 18.8785809,7.90303814 18.8785809,10.8541263 L18.8785809,20.8381814 C18.8785809,23.7616893 17.412647,25.6923077 14.4254609,25.6923077 C11.4659339,25.6923077 10,23.7616893 10,20.8381814 Z M12.129753,10.7438052 L12.129753,20.9485025 C12.129753,22.7136393 12.8765496,23.734109 14.4254609,23.734109 C16.0020313,23.734109 16.7211687,22.7136393 16.7211687,20.9485025 L16.7211687,10.7438052 C16.7211687,9.00624865 16.0020313,7.95819866 14.4254609,7.95819866 C12.8765496,7.95819866 12.129753,9.00624865 12.129753,10.7438052 Z M22.8338365,9.88881707 L22.8338365,25.4992459 L20.8976974,25.4992459 L20.8976974,6.19306184 L23.6359513,6.19306184 L28.1167304,20.1486749 L28.1167304,6.19306184 L30.0252104,6.19306184 L30.0252104,25.4992459 L27.7848209,25.4992459 L22.8338365,9.88881707 Z M39.9271791,25.4992459 L32.2379409,25.4992459 L32.2379409,6.19306184 L34.395353,6.19306184 L34.395353,23.5410472 L39.9271791,23.5410472 L39.9271791,25.4992459 Z M41.5590678,6.19306184 L43.71648,6.19306184 L43.71648,25.4992459 L41.5590678,25.4992459 L41.5590678,6.19306184 Z M47.8376904,9.88881707 L47.8376904,25.4992459 L45.9015513,25.4992459 L45.9015513,6.19306184 L48.6398052,6.19306184 L53.1205843,20.1486749 L53.1205843,6.19306184 L55.0290643,6.19306184 L55.0290643,25.4992459 L52.7886748,25.4992459 L47.8376904,9.88881707 Z M59.399207,14.7429433 L64.1289183,14.7429433 L64.1289183,16.6735617 L59.399207,16.6735617 L59.399207,23.5410472 L65.2076243,23.5410472 L65.2076243,25.4992459 L57.2417948,25.4992459 L57.2417948,6.19306184 L65.2076243,6.19306184 L65.2076243,8.1512605 L59.399207,8.1512605 L59.399207,14.7429433 Z M81.6924661,9.97155785 L78.6223026,25.4716656 L76.5478678,25.4716656 L73.3394087,10.1094592 L73.3394087,25.4992459 L71.4585878,25.4992459 L71.4585878,6.19306184 L74.473433,6.19306184 L77.654233,21.6104288 L80.7243965,6.19306184 L83.7392417,6.19306184 L83.7392417,25.4992459 L81.6924661,25.4992459 L81.6924661,9.97155785 Z M85.7860174,20.8381814 L85.7860174,10.8541263 C85.7860174,7.90303814 87.2519513,6 90.2114783,6 C93.1986643,6 94.6645983,7.90303814 94.6645983,10.8541263 L94.6645983,20.8381814 C94.6645983,23.7616893 93.1986643,25.6923077 90.2114783,25.6923077 C87.2519513,25.6923077 85.7860174,23.7616893 85.7860174,20.8381814 Z M87.9157704,10.7438052 L87.9157704,20.9485025 C87.9157704,22.7136393 88.662567,23.734109 90.2114783,23.734109 C91.7880487,23.734109 92.5071861,22.7136393 92.5071861,20.9485025 L92.5071861,10.7438052 C92.5071861,9.00624865 91.7880487,7.95819866 90.2114783,7.95819866 C88.662567,7.95819866 87.9157704,9.00624865 87.9157704,10.7438052 Z M96.1581913,6.19306184 L98.3432626,6.19306184 L101.496403,22.9894419 L104.621885,6.19306184 L106.613343,6.19306184 L102.989997,25.4992459 L99.8091965,25.4992459 L96.1581913,6.19306184 Z M108.27289,6.19306184 L110.430303,6.19306184 L110.430303,25.4992459 L108.27289,25.4992459 L108.27289,6.19306184 Z M114.800445,14.7429433 L119.530157,14.7429433 L119.530157,16.6735617 L114.800445,16.6735617 L114.800445,23.5410472 L120.608863,23.5410472 L120.608863,25.4992459 L112.643033,25.4992459 L112.643033,6.19306184 L120.608863,6.19306184 L120.608863,8.1512605 L114.800445,8.1512605 L114.800445,14.7429433 Z M126.666212,6 C129.59808,6 130.981037,7.90303814 130.981037,10.826546 L130.981037,11.350571 L128.934261,11.350571 L128.934261,10.716225 C128.934261,8.97866839 128.270442,7.95819866 126.72153,7.95819866 C125.172619,7.95819866 124.5088,8.97866839 124.5088,10.6886447 C124.5088,15.018746 131.008696,15.4324499 131.008696,20.8657617 C131.008696,23.7892696 129.59808,25.6923077 126.638553,25.6923077 C123.679026,25.6923077 122.29607,23.7892696 122.29607,20.8657617 L122.29607,19.7625512 L124.315186,19.7625512 L124.315186,20.9760827 C124.315186,22.7136393 125.034323,23.734109 126.583235,23.734109 C128.132146,23.734109 128.851283,22.7136393 128.851283,20.9760827 C128.851283,16.6735617 122.379047,16.2598578 122.379047,10.826546 C122.379047,7.84787761 123.762003,6 126.666212,6 Z" id="online-MOVIES" fill="#FFFFFF"></path>
                </g>
            </g>
        </g>
    </g>
</svg>