<svg id="Layer_1" data-name="Layer 1" xmlns="http://www.w3.org/2000/svg" viewBox="0 0 260 45"><defs><style>.cls-1{fill:#000;}</style></defs><path class="cls-1" d="M145.08,40.31H.93a.48.48,0,0,0-.49.49.46.46,0,0,0,.49.47H145.08s.13-.06.13-.48S145.08,40.31,145.08,40.31Z"/><path class="cls-1" d="M170.78,40.31s-.13,0-.13.48.13.48.13.48h79.69a.46.46,0,0,0,.43-.47.49.49,0,0,0-.43-.49Z"/><path class="cls-1" d="M38.78,32.25a7.18,7.18,0,0,1-2.37-.41c-1.15-.37-1.53-1.56-1.88-4.14L31,2.39c-.11-.86-.34-1.27-.69-1.27s-.57.33-.84,1L19.11,25.49,8.66,2.39c-.5-1.07-.73-1.27-1-1.27S7.09,1.49,7,2.18L3.18,28.89c-.19,1.39-.5,3-1.57,3.24a4.63,4.63,0,0,1-1.15.12c-.38,0-.61.08-.61.29,0,.37.31.45.69.45,1.22,0,3.06-.12,3.79-.12s2.41.12,4,.12c.57,0,.92-.08.92-.45,0-.21-.27-.29-.57-.29A6.9,6.9,0,0,1,7.09,32a1.3,1.3,0,0,1-1.15-1.31,17.29,17.29,0,0,1,.11-1.92l2-16.3H8.2c1.34,3.07,3.64,8.23,4,9.09.46,1.15,3.48,7.41,4.4,9.3.61,1.23,1,2,1.34,2s.54-.37,1.42-2.29L27.7,12h.15l2.3,18c.15,1.15,0,1.88-.19,2s-.42.25-.42.45.23.37,1.11.45c1.53.12,6.81,0,7.77,0,.54,0,1-.12,1-.45S39.12,32.25,38.78,32.25Z"/><path class="cls-1" d="M30.69,28.92c-.62,2.84-.5,3-1.57,3.24a4.63,4.63,0,0,1-1.15.12c-.38,0-.61.08-.61.29,0,.37.31.45.69.45,1.22,0,3.06-.12,3.79-.12Z"/><path class="cls-1" d="M62.58,33.07c-1.15,0-3.55,0-6.15-.07h-.15c-.57,0-1.07-.06-1.07-.5s.48-.52.68-.54a.43.43,0,0,0,.1-.12.34.34,0,0,0,0-.28l-2.61-6.9c0-.07,0-.07-.09-.07H46v.09l-1.8,4.65a6.08,6.08,0,0,0-.47,1.9c0,.39.13.76,1,.76h.49c.24,0,.74,0,.74.51s-.6.58-.8.58H41.05c-.76,0-2,.08-3.13.08-.26,0-.87,0-.87-.58,0-.19.08-.51.64-.51a9.63,9.63,0,0,0,1-.06c1.3-.17,1.88-1.07,2.56-2.77L49.4,8.72c.39-.93.63-1.46,1.14-1.46s.74.49,1,1.19,1.54,3.8,2.94,7.29c1.77,4.43,4,9.94,5.13,12.72,1.29,3.07,2.24,3.29,2.69,3.4a6.9,6.9,0,0,0,1.31.12c.17,0,.67,0,.67.51S63.63,33.07,62.58,33.07Zm-10-10.62-2.82-7.74-2.9,7.74Z"/><path class="cls-1" d="M70.12,33.53a11.42,11.42,0,0,1-4.85-.87c-.62-.27-.77-.53-.77-1.33,0-1.68.11-3.48.16-4.16V27c0-.3.07-1.08.64-1.08.26,0,.58.14.58.8a6.66,6.66,0,0,0,.28,1.59,4.28,4.28,0,0,0,4.41,3.11c2.67,0,4.11-1.78,4.11-3.46s-.53-3-3.09-5l-1.5-1.17c-3.44-2.69-4.91-5.06-4.91-7.91,0-3.77,3.19-6.4,7.76-6.4A16.13,16.13,0,0,1,77.33,8a.65.65,0,0,1,.64.63v.54c0,.59-.1,1.57-.1,3.36,0,.46,0,1.23-.61,1.23-.26,0-.58-.15-.58-.84a3.71,3.71,0,0,0-.79-2,3.89,3.89,0,0,0-3.35-1.5c-2.2,0-3.62,1.22-3.62,3.1,0,1.29.52,2.34,3.35,4.48l.91.68c4,3.11,5.44,5.33,5.44,8.5a6.83,6.83,0,0,1-3.17,5.87A9.57,9.57,0,0,1,70.12,33.53Z"/><path class="cls-1" d="M97.48,33.07c-1.3,0-2.57,0-3.57-.06H90.85c-.85,0-1.83.06-2.58.06s-.9-.31-.9-.58.13-.51.77-.51a5,5,0,0,0,1.12-.12c.43-.09.64-.53.75-1.57.16-1.35.16-3.93.16-6.9V10.31l-4.59.12c-1.92.07-2.55.25-3,.83a3.52,3.52,0,0,0-.52,1.06.62.62,0,0,1-.6.58c-.45,0-.54-.58-.54-.77,0-.57.64-3.6.69-3.8s.19-.81.63-.81a1.15,1.15,0,0,1,.45.13,2.71,2.71,0,0,0,1,.26c1,.1,2.2.16,3.23.16h12.9a11.94,11.94,0,0,0,2.75-.26,2,2,0,0,1,.38-.06c.51,0,.51.54.51.93v1.71c0,.71-.05,1.62-.05,2.06,0,.23-.08.77-.54.77s-.58-.53-.61-.88V12c-.07-1-1.38-1.54-3.6-1.59l-3.84-.09V23.39c0,3,0,5.55.16,6.93.1.94.29,1.44,1.05,1.54a13.42,13.42,0,0,0,1.63.13c.7,0,.77.36.77.51S98.29,33.07,97.48,33.07Z"/><path class="cls-1" d="M120.15,33.17c-3,0-5-.07-6.55-.13-1,0-1.73-.06-2.46-.06h-1.52c-.85,0-1.83.06-2.58.06s-.9-.31-.9-.58.13-.51.77-.51a5,5,0,0,0,1.12-.12c.46-.09.62-.6.75-1.58.16-1.35.16-3.92.16-6.89v-5.7c0-5,0-5.85-.06-6.88s-.32-1.44-1.2-1.62a6.4,6.4,0,0,0-1.22-.09c-.2,0-.8,0-.8-.54s.65-.54,1-.54c1,0,2.11,0,3,.06h9.76a13.61,13.61,0,0,0,1.35-.19l.18-.05a1.3,1.3,0,0,1,.4-.09c.13,0,.44.05.44.54a2.09,2.09,0,0,1,0,.35,13.2,13.2,0,0,0-.21,1.78v.67a11.92,11.92,0,0,1-.12,1.5c-.09.47-.36.57-.57.57s-.54-.12-.54-.71a3.24,3.24,0,0,0-.18-1.08c-.19-.5-.43-.83-2-1-.52-.06-3.8-.13-4.57-.13v8.31a.49.49,0,0,0,0,.15c2.79,0,4.68-.06,5.15-.11.71-.06,1.16-.14,1.4-.41s.44-.51.71-.51a.46.46,0,0,1,.48.51,2.33,2.33,0,0,1,0,.32,17.9,17.9,0,0,0-.22,2.06c-.06.64-.13,1.94-.13,2.17s0,.87-.54.87a.5.5,0,0,1-.54-.54v-.28a5.2,5.2,0,0,0-.1-.83c-.11-.46-.4-1-1.6-1.08-.6-.06-3.71-.09-4.54-.1v7.68c.06,2,.38,2.49,3.65,2.49a8.15,8.15,0,0,0,3-.37c.75-.34,1.1-1,1.32-2.22.05-.28.13-.7.6-.7s.51.52.51.84a25.62,25.62,0,0,1-.43,3.67C121.88,33.17,121.41,33.17,120.15,33.17Z"/><path class="cls-1" d="M162.78,33.07c-1.32,0-2.61,0-3.6-.07h-3c-.85,0-1.83.06-2.58.06s-.9-.31-.9-.58.13-.51.77-.51a5,5,0,0,0,1.12-.12c.46-.09.62-.6.75-1.58.16-1.35.16-3.92.16-6.89V17.66c0-5,0-5.85-.06-6.88s-.32-1.44-1.2-1.62a6.4,6.4,0,0,0-1.22-.09c-.2,0-.8,0-.8-.54s.65-.54,1-.54c1,0,2.11,0,3,.06h3.86c.8,0,1.73-.05,2.5-.05,4.17,0,5.66,1.4,6.22,1.92A5.86,5.86,0,0,1,170.55,14a7.92,7.92,0,0,1-7.71,8.12h-.54a4.57,4.57,0,0,1-.73,0,.57.57,0,0,1-.59-.54c0-.61.73-.61,1.16-.61,1.72,0,4.11-2,4.11-5.12a6,6,0,0,0-1.84-4.69,4.57,4.57,0,0,0-3.09-1.21,4.33,4.33,0,0,0-1.19.12.71.71,0,0,0-.09.38v13c0,3,0,5.55.16,6.93.1.94.29,1.44,1.05,1.54a13.51,13.51,0,0,0,1.63.13c.7,0,.77.36.77.51S163.59,33.07,162.78,33.07Z"/><path class="cls-1" d="M184.12,33.07c-1.31,0-2.59,0-3.58-.06h-3.06c-.85,0-1.83.06-2.58.06s-.9-.31-.9-.58.13-.51.77-.51a5,5,0,0,0,1.12-.12c.46-.09.65-.45.75-1.41.16-1.36.16-3.88.16-7.07V17.66c0-5,0-5.85-.06-6.88-.07-1.23-.48-1.5-.91-1.59a4.39,4.39,0,0,0-1.12-.12c-.51,0-.77-.19-.77-.58s.7-.51,1-.51c.66,0,1.56,0,2.39.05s1.4,0,1.84,0h1.59c.8,0,1.69-.06,2.38-.06.26,0,.93,0,.93.51s-.26.58-.77.58a5.29,5.29,0,0,0-.94.09c-.7.13-.93.51-1,1.62s-.06,1.93-.06,6.88v5.73c0,3.19,0,5.71.13,7.1.09.84.28,1.26,1.09,1.37a13.52,13.52,0,0,0,1.63.13c.7,0,.77.36.77.51S184.93,33.07,184.12,33.07Z"/><path class="cls-1" d="M202.76,33.17c-3,0-5-.07-6.55-.13-1,0-1.73-.06-2.46-.06h-1.52c-.85,0-1.83.06-2.58.06s-.9-.31-.9-.58.13-.51.77-.51a5,5,0,0,0,1.12-.12c.46-.09.62-.6.75-1.58.16-1.35.16-3.92.16-6.89v-5.7c0-5,0-5.85-.06-6.88s-.32-1.44-1.2-1.62a6.4,6.4,0,0,0-1.22-.09c-.2,0-.8,0-.8-.54s.65-.54,1-.54c1,0,2.11,0,3,.06H202a13.59,13.59,0,0,0,1.35-.19l.18-.05a1.33,1.33,0,0,1,.4-.09c.13,0,.45.05.45.54a2.09,2.09,0,0,1,0,.35,13.21,13.21,0,0,0-.21,1.78v.66a12.11,12.11,0,0,1-.12,1.51c-.09.47-.36.57-.57.57S203,13,203,12.42a3.24,3.24,0,0,0-.18-1.08c-.19-.5-.43-.83-2-1-.52-.06-3.8-.13-4.56-.13v8.31a.47.47,0,0,0,0,.15c2.79,0,4.68-.06,5.15-.1.71-.06,1.16-.14,1.4-.41s.44-.51.71-.51a.46.46,0,0,1,.48.51,2.31,2.31,0,0,1,0,.32,17.7,17.7,0,0,0-.22,2.06c-.07.64-.13,1.94-.13,2.17s0,.87-.54.87a.5.5,0,0,1-.54-.54v-.28a5.33,5.33,0,0,0-.1-.84c-.11-.46-.39-1-1.6-1.08-.6-.06-3.72-.09-4.54-.1v7.68c.06,2,.38,2.49,3.65,2.49a8.15,8.15,0,0,0,3-.37c.75-.34,1.1-1,1.32-2.22.05-.28.13-.7.6-.7s.51.52.51.84a25.69,25.69,0,0,1-.43,3.67C204.48,33.17,204,33.17,202.76,33.17Z"/><path class="cls-1" d="M224,33.53c-4.89,0-8.49-1.15-11.32-3.61a12.41,12.41,0,0,1-4.12-9.79,12.65,12.65,0,0,1,3.89-9.1c2.62-2.4,5.94-3.51,10.45-3.51a32.49,32.49,0,0,1,4.75.33c.6.08,1.15.19,1.67.29s1.08.21,1.57.26c.66.06.71.5.71.64a3.81,3.81,0,0,1,0,.44c0,.27-.08.68-.12,1.36v1.85a15.81,15.81,0,0,1-.05,1.68c-.05.35-.06,1-.64,1s-.58-.68-.58-1a4.39,4.39,0,0,0-1.2-2.82c-1.09-1.16-3.68-1.94-6.42-1.94a8.23,8.23,0,0,0-5.95,2c-2,1.82-2.91,4.44-2.91,8.24,0,7.73,6,11.33,10,11.33,2.76,0,4.5-.28,5.76-1.74a5.19,5.19,0,0,0,1.05-2c.08-.43.16-.85.67-.85.13,0,.54,0,.54.74a30.86,30.86,0,0,1-.73,4.4,1.39,1.39,0,0,1-1,1.1A19.13,19.13,0,0,1,224,33.53Z"/><path class="cls-1" d="M249.34,33.17c-3,0-5-.07-6.55-.13-1,0-1.73-.06-2.46-.06h-1.52c-.85,0-1.83.06-2.58.06s-.9-.31-.9-.58.13-.51.77-.51a5,5,0,0,0,1.12-.12c.46-.09.62-.6.75-1.58.16-1.35.16-3.92.16-6.89v-5.7c0-5,0-5.85-.06-6.88s-.32-1.44-1.2-1.62a6.41,6.41,0,0,0-1.22-.09c-.2,0-.8,0-.8-.54s.65-.54,1-.54c1,0,2.11,0,3,.06h9.76A13.57,13.57,0,0,0,250,7.86l.18-.05a1.3,1.3,0,0,1,.4-.09c.13,0,.45.05.45.54a2.09,2.09,0,0,1,0,.35,13.42,13.42,0,0,0-.21,1.78v.67a11.75,11.75,0,0,1-.12,1.5c-.09.47-.36.57-.57.57s-.54-.12-.54-.71a3.26,3.26,0,0,0-.18-1.08c-.19-.5-.43-.83-2-1-.52-.06-3.8-.13-4.56-.13v8.31a.47.47,0,0,0,0,.15c2.79,0,4.68-.06,5.15-.11.71-.06,1.16-.14,1.4-.41s.44-.51.71-.51a.46.46,0,0,1,.48.51,2.32,2.32,0,0,1,0,.32,17.64,17.64,0,0,0-.22,2.06c-.06.65-.13,1.94-.13,2.17s0,.87-.54.87A.5.5,0,0,1,249,23v-.28a5.18,5.18,0,0,0-.1-.83c-.11-.46-.39-1-1.6-1.08-.58-.06-3.56-.09-4.54-.1v7.68c.06,2,.38,2.49,3.65,2.49a8.16,8.16,0,0,0,3-.37c.75-.34,1.1-1,1.32-2.22a.62.62,0,0,1,.6-.7c.47,0,.51.52.51.84a25.55,25.55,0,0,1-.43,3.67C251.06,33.17,250.6,33.17,249.34,33.17Z"/><path class="cls-1" d="M161,43a14.4,14.4,0,0,1-7.43-2.17c-4.67-2.87-7.32-6.44-11-11.37l-.06-.08c-.78-1.06-2.87-4.26-3.41-5.14S138,22.78,137,22.78h-.8a6.72,6.72,0,0,0-.77,0,2.74,2.74,0,0,0,0,.36V24c0,1.59,0,5.32.16,6.47s.34,1.43,1,1.51c.45.06,1.29.13,1.58.13a.56.56,0,0,1,.61.51s0,0,0,0-.06.61-.88.61c-1.4,0-3.1-.06-3.91-.09h-.64c-.77,0-3.26.09-4.1.09-.58,0-.88-.21-.88-.61a.56.56,0,0,1,.57-.55H129a8.33,8.33,0,0,0,1.23-.12c.42-.08.56-.58.69-1.52.16-1.36.16-4,.16-7.12V17.52c0-5.14,0-6.07-.07-7.11s-.29-1.38-1.15-1.56a8.74,8.74,0,0,0-1.27-.09.57.57,0,0,1-.61-.53v0c0-.41.3-.61.88-.61,1.12,0,3.17.1,4.15.15h4.29a17.46,17.46,0,0,1,5.18.61,5.67,5.67,0,0,1,4,5.38,7.81,7.81,0,0,1-2,5.57,14.16,14.16,0,0,1-1.33,1.26,6.65,6.65,0,0,0-.86.82,23.61,23.61,0,0,0,1.4,2.24c.62.9,1.19,1.76,1.74,2.6a57.93,57.93,0,0,0,5.36,7.24,27.76,27.76,0,0,0,7.28,6.08,11.88,11.88,0,0,0,5.53,1.55,13.54,13.54,0,0,0,3-.43,2.18,2.18,0,0,1,.43-.08h.22l.11.2.08.17-.11.2c-.21.35-1.78,1.72-5.64,1.91ZM135.54,20.6c.16,0,.5.09,1.18.16a14.67,14.67,0,0,0,1.55.11,4.74,4.74,0,0,0,1.38-.19c1.1-.32,2.87-3,2.49-6.34a5.1,5.1,0,0,0-2.5-4A5.51,5.51,0,0,0,137,9.71h-.56a3,3,0,0,0-.87.22c-.07.76,0,4.61,0,6.52v3.2A4,4,0,0,0,135.54,20.6Z"/><path class="cls-1" d="M255.85,30.91h-.43c-.17,0-.24,0-.28.08a.36.36,0,0,0,0,.1h0s.05-.31.06-.33a.08.08,0,0,0,0,0h1.54a1.25,1.25,0,0,0,.28,0v.39h0V31h0c0-.07-.08-.15-.34-.16h-.36v1.79c0,.12,0,.14.11.15h-.67c.06,0,.07-.07.08-.16s0-.35,0-.61Z"/><path class="cls-1" d="M257.57,30.76v-.07l.08.09.78,1.62.78-1.64s0-.07.06-.07,0,0,0,.09l.26,1.77c0,.18.06.26.14.29h-.55v-.12L259,31.46h0l-.63,1.3c-.07.14-.08.16-.11.16s0-.06-.1-.14-.3-.57-.33-.65l-.3-.64h0l-.15,1.14a1.14,1.14,0,0,0,0,.13s0,.08.09.09H257c.08,0,.1-.13.12-.23Z"/></svg>