<?xml version="1.0" encoding="utf-8"?>
<svg id="Layer_1" viewBox="0 0 187.09 67.03" xmlns="http://www.w3.org/2000/svg">
  <defs>
    <style>.cls-1{fill:#fff;fill-rule:evenodd;}</style>
  </defs>
  <title>ShowtimeLogo</title>
  <path class="cls-1" d="M307.35,477.28c0-13.54,4.82-22,10.79-23-6-7.12-15.84-11-24.79-11a33.47,33.47,0,0,0-25,11c6,1.15,7.8,6.2,7.8,13.77H269c0-4.59-.92-6.89-3.67-6.89a2.82,2.82,0,0,0-2.53,1.61,0.8,0.8,0,0,1-.23.46,6.7,6.7,0,0,0-.46,2.07c0,9.18,15.38,8.72,15.38,23.19,0,5.51-4.36,10.79-9.18,10.79a33.64,33.64,0,0,0,49.58.23c-5.74-1.38-10.56-9.41-10.56-22.27h0Zm-3.21,22h-7.8V480.26h-8.26v19.05h-7.58V455.24h7.58v17.91h8.26V455.24h7.8v44.07h0Z" transform="translate(-259.83 -443.3)" style="fill: rgb(0, 0, 0);"/>
  <path class="cls-1" d="M266.49,492.43c2.07,0,3.67-2.07,3.67-4.82,0-5.51-5.05-6.66-10.33-11.48V478c0.19,8.64,3.22,14.46,6.66,14.46h0Z" transform="translate(-259.83 -443.3)" style="fill: rgb(0, 0, 0);"/>
  <path class="cls-1" d="M314.93,476.59c0-7.58,2.07-14.92,6-14.92,4.82,0,6,11.48,6,15.15,0,7.8-2.53,15.15-6,15.15-3.9,0-6-7.58-6-15.38h0Z" transform="translate(-259.83 -443.3)" style="fill: rgb(0, 0, 0);"/>
  <polygon class="cls-1" points="131.76 12.63 99.4 12.63 96.18 37.88 96.18 37.88 92.74 12.63 85.62 12.63 81.95 37.88 81.72 37.88 78.97 12.63 71.85 12.63 77.59 55.55 84.48 55.55 88.38 28.23 88.61 28.23 92.28 55.55 99.4 55.55 103.99 19.28 110.64 19.28 110.64 55.55 118.45 55.55 118.45 19.28 125.57 19.28 125.57 55.55 133.6 55.55 133.6 12.63 131.76 12.63 131.76 12.63" style="fill: rgb(0, 0, 0);"/>
  <polygon class="cls-1" points="137.27 12.63 147.83 12.63 151.28 34.66 151.28 34.66 154.95 12.63 165.28 12.63 165.28 55.55 158.16 55.55 158.16 24.1 158.16 24.1 152.88 55.55 148.52 55.55 143.24 24.1 143.01 24.1 143.01 55.55 137.27 55.55 137.27 12.63 137.27 12.63" style="fill: rgb(0, 0, 0);"/>
  <polygon class="cls-1" points="168.95 12.63 186.63 12.63 186.63 19.28 176.76 19.28 176.76 30.07 184.1 30.07 184.1 37.19 176.76 37.19 176.76 48.9 187.09 48.9 187.09 55.55 168.95 55.55 168.95 12.63 168.95 12.63" style="fill: rgb(0, 0, 0);"/>
</svg>