<?xml version="1.0" encoding="UTF-8"?>
<svg width="150px" height="37px" viewBox="0 0 150 37" version="1.1" xmlns="http://www.w3.org/2000/svg" xmlns:xlink="http://www.w3.org/1999/xlink">
    <!-- Generator: sketchtool 41.1 (35376) - http://www.bohemiancoding.com/sketch -->
    <title>6963DE78-56C7-4618-ABC8-191B16B490FF</title>
    <desc>Created with sketchtool.</desc>
    <defs></defs>
    <g id="3p-logos" stroke="none" stroke-width="1" fill="none" fill-rule="evenodd">
        <g id="logo-3p" transform="translate(-339.000000, -364.000000)" fill="#FFFFFF">
            <g id="starz_logo_white" transform="translate(339.000000, 364.000000)">
                <g id="svg3199">
                    <g id="layer1" transform="translate(0.034002, 0.081636)">
                        <path d="M23.4177902,10.8023476 L26.5175859,4.64498297 C26.5175859,4.64498297 21.7603981,0.141255301 13.4121219,0.141255301 C5.85303147,0.141255301 0.970393606,4.5617612 0.970393606,10.8301155 C0.970393606,24.3284139 20.4945644,19.4446694 20.4945644,26.4243509 C20.4945644,29.237608 17.6277677,30.3833524 14.8246858,30.3833524 C7.91987562,30.3833524 3.09254595,24.9944421 3.09254595,24.9944421 L0.0409225774,31.4166331 C0.0409225774,31.4166331 5.30388162,36.7703935 14.5587018,36.7703935 C22.1064291,36.7703935 27.6406588,33.1127473 27.6406588,25.7627345 C27.6406588,12.5321571 8.13564186,17.2810432 8.13564186,10.1904404 C8.13564186,8.07332124 10.2087243,6.55873888 13.2893511,6.55873888 C18.6518497,6.55873888 23.4177902,10.8023476 23.4177902,10.8023476 Z" id="path3887"></path>
                        <polygon id="path3889" points="39.4281489 36.180138 39.4281489 7.32022711 28.8449461 7.32022711 28.8449461 0.673701647 57.3313996 0.673701647 57.3313996 7.32022711 46.7481968 7.32022711 46.7481968 36.180138"></polygon>
                        <path d="M68.9729221,0.480644859 L50.8932842,36.1783875 L58.4283042,36.1783875 L61.2119071,30.6523706 L76.6457443,30.6523706 L79.4679321,36.1783875 L87.0801204,36.1783875 L68.9729221,0.480644859 Z M68.9508746,15.5227809 L73.3329815,24.1096978 L64.5412073,24.1096978 L68.9508746,15.5227809 Z" id="path3891"></path>
                        <path d="M88.7282338,0.671951205 L88.7282338,36.1783875 L96.0482832,36.1783875 L96.0482832,23.2351545 L101.163498,23.2351545 L108.637882,36.1783875 L117.038302,36.1783875 L108.55521,21.5133989 C112.207223,19.7671802 114.679136,16.5578314 114.679136,11.5600081 C114.679136,6.09460731 110.846434,0.671951205 101.869044,0.671951205 L88.7282338,0.671951205 Z M96.0482832,7.31847518 L102.04543,7.31847518 C105.339626,7.31847518 107.32049,9.16712594 107.32049,11.7458491 C107.32049,14.5732361 105.008416,16.2388126 102.04543,16.2388126 L96.0482832,16.2388126 L96.0482832,7.31847518 Z" id="path3895"></path>
                        <polygon id="path3899" points="120.125065 7.32022711 120.125065 0.673701647 149.741224 0.673701647 131.325629 29.7085214 149.317073 29.7085214 149.317073 36.180138 118.625784 36.180138 136.942253 7.32022711"></polygon>
                    </g>
                </g>
            </g>
        </g>
    </g>
</svg>