<?xml version="1.0" encoding="UTF-8" standalone="no"?>
<svg width="80px" height="20px" viewBox="0 0 80 20" version="1.1" xmlns="http://www.w3.org/2000/svg" xmlns:xlink="http://www.w3.org/1999/xlink">
    <!-- Generator: Sketch 3.8.3 (29802) - http://www.bohemiancoding.com/sketch -->
    <title>Starz_2016</title>
    <desc>Created with Sketch.</desc>
    <defs></defs>
    <g id="Old" stroke="none" stroke-width="1" fill="none" fill-rule="evenodd">
        <g id="Starz_2016" fill="#000000">
            <g id="svg3199">
                <g id="layer1" transform="translate(0.018135, 0.044128)">
                    <path d="M12.4894881,5.83910683 L14.1427125,2.51080161 C14.1427125,2.51080161 11.6055457,0.0763542169 7.15313167,0.0763542169 C3.12161678,0.0763542169 0.517543257,2.46581687 0.517543257,5.85411647 C0.517543257,13.150494 10.9304344,10.5106321 10.9304344,14.2834329 C10.9304344,15.8041124 9.40147612,16.4234337 7.9064991,16.4234337 C4.22393367,16.4234337 1.64935784,13.5105092 1.64935784,13.5105092 L0.0218253746,16.9819639 C0.0218253746,16.9819639 2.82873686,19.8758884 7.76464096,19.8758884 C11.7900955,19.8758884 14.7416847,17.8987823 14.7416847,13.9258024 C14.7416847,6.77413896 4.33900899,9.34110442 4.33900899,5.50834618 C4.33900899,4.36395743 5.44465295,3.54526426 7.08765395,3.54526426 C9.94765315,3.54526426 12.4894881,5.83910683 12.4894881,5.83910683 L12.4894881,5.83910683 Z" id="path3887"></path>
                    <polygon id="path3889" points="21.0283461 19.5568313 21.0283461 3.95687952 15.3839712 3.95687952 15.3839712 0.364163052 30.5767465 0.364163052 30.5767465 3.95687952 24.9323716 3.95687952 24.9323716 19.5568313"></polygon>
                    <path d="M36.7855584,0.259808032 L27.1430849,19.5558851 L31.1617622,19.5558851 L32.6463504,16.568849 L40.8777303,16.568849 L42.3828971,19.5558851 L46.4427309,19.5558851 L36.7855584,0.259808032 L36.7855584,0.259808032 Z M36.7737998,8.39069237 L39.1109235,13.0322691 L34.4219772,13.0322691 L36.7737998,8.39069237 L36.7737998,8.39069237 Z" id="path3891"></path>
                    <path d="M47.3217247,0.363216867 L47.3217247,19.5558851 L51.225751,19.5558851 L51.225751,12.559543 L53.9538653,12.559543 L57.9402038,19.5558851 L62.4204276,19.5558851 L57.8961119,11.6288643 C59.8438521,10.6849622 61.1622058,8.95017912 61.1622058,6.24865301 C61.1622058,3.29438233 59.1180979,0.363216867 54.330157,0.363216867 L47.3217247,0.363216867 L47.3217247,0.363216867 Z M51.225751,3.95593253 L54.4242294,3.95593253 C56.1811341,3.95593253 57.2375944,4.95520321 57.2375944,6.34910763 C57.2375944,7.8774249 56.0044883,8.77773655 54.4242294,8.77773655 L51.225751,8.77773655 L51.225751,3.95593253 L51.225751,3.95593253 Z" id="path3895"></path>
                    <polygon id="path3899" points="64.0667013 3.95687952 64.0667013 0.364163052 79.861986 0.364163052 70.0403357 16.0586602 79.6357722 16.0586602 79.6357722 19.5568313 63.2670849 19.5568313 73.0358681 3.95687952"></polygon>
                </g>
            </g>
        </g>
    </g>
</svg>