<svg xmlns="http://www.w3.org/2000/svg" width="12" height="12" viewBox="0 0 12 12">
    <path fill="#FFF" fill-rule="nonzero" d="M.424 12H11.576a.42.42 0 0 0 .424-.424V.424A.42.42 0 0 0 11.576 0H.424A.42.42 0 0 0 0 .424v11.152c0 .238.196.424.424.424zM9.747.848h1.405V2.79H9.747V.848zm0 2.79h1.405v1.943H9.736V3.638h.01zm.01 2.79h1.416v1.944H9.767V6.43h-.01zm-.01 2.792h1.405v1.943H9.747V9.22zM3.1.848h5.798V5.58H3.101V.848zm0 5.58h5.798v4.735H3.101V6.429zM.848.849h1.405V2.79H.848V.848zm0 2.79h1.405v1.943H.848V3.638zm0 2.79h1.405v1.944H.848V6.43zm0 2.792h1.405v1.943H.848V9.22z"/>
</svg>
