<?xml version="1.0" encoding="UTF-8" standalone="no"?>
<svg width="124px" height="35px" viewBox="0 0 124 35" version="1.1" xmlns="http://www.w3.org/2000/svg" xmlns:xlink="http://www.w3.org/1999/xlink">
    <!-- Generator: Sketch 3.8.3 (29802) - http://www.bohemiancoding.com/sketch -->
    <title>Vudu</title>
    <desc>Created with Sketch.</desc>
    <defs></defs>
    <g id="Old" stroke="none" stroke-width="1" fill="none" fill-rule="evenodd">
        <g id="Vudu" transform="translate(0.120956, 0.000000)" fill="#2D6DBE">
            <g id="svg4390">
                <g id="layer1" transform="translate(0.058890, 0.386624)">
                    <g id="g4369" transform="translate(0.319258, 0.394249)">
                        <path d="M31.6807591,0.0389298682 C29.6168402,0.0330580932 28.3385037,0.0377555132 26.2946517,0.0377555132 L26.2656959,0.0377555132 L26.2404265,0.0377555132 L26.2380482,0.0377555132 L26.2344807,0.0377555132 C25.2965384,0.0480311195 24.5012942,0.626400957 24.1831965,1.45578918 C24.1482355,1.50059082 24.124512,1.55487538 24.1073882,1.60551944 C22.0516447,7.38628193 20.259744,12.3530696 18.2062301,18.1382359 C17.6666532,19.6634295 17.1307924,21.1827513 16.5808104,22.7079448 C16.5369308,22.8275822 16.4225048,22.9817163 16.3035897,23.016213 C16.0665029,23.0822705 16.0613004,22.833454 16.0107615,22.6910635 C14.7287089,19.0843257 13.4511156,15.4783218 12.1705494,11.8767219 C10.855052,8.17603566 9.76549308,5.10216145 8.44776596,1.3978054 C8.43516097,1.35740759 8.41583728,1.31706849 8.38533558,1.27449812 C8.02487441,0.541994191 7.2615886,0.0377555132 6.38161742,0.0377555132 C6.35712092,0.0377555132 6.33256497,0.0377555132 6.31472772,0.0389298682 C4.23520123,0.0330580932 3.01557902,0.0294175927 0.907810215,0.0389298682 C0.211414105,0.0424529332 -0.13046659,0.546104434 0.0999312697,1.19053174 C3.27124632,9.92112719 6.43364274,18.6495207 9.6012417,27.3691066 C9.84055818,28.0238095 10.0479163,28.6073172 10.2537879,29.1717415 C11.4600322,31.9307418 13.2965261,33.3751985 16.5369605,33.5601594 C17.4912535,33.5601594 17.2742336,33.5619209 17.2742336,33.5619209 C18.3318341,33.5266903 19.5217276,33.3674184 20.874386,33.0995186 L23.1211367,26.7726811 C26.2530612,18.2277805 29.3039748,9.90600737 32.4782627,1.23559761 C32.5146507,1.13577744 32.5525846,1.03889315 32.5704218,0.936137088 C32.6417708,0.422356776 32.2694182,0.039223457 31.6807888,0.039223457" id="path4166"></path>
                        <path d="M62.0506038,2.32495867 L62.0506038,2.26183709 C62.0506038,1.09995961 61.1453632,0.153869864 59.9956036,0.0679951545 C59.9354029,0.047443942 54.3426806,0.0679951545 54.3426806,0.0679951545 C54.3426806,0.0679951545 54.3450589,1.25996548 54.3450589,3.17122824 C54.3450589,8.96446825 54.3492209,14.0897939 54.3368538,19.9703765 C54.3368538,20.5502143 54.2937471,21.1528052 54.1488194,21.7150277 C53.6166747,23.8787768 52.2870561,25.3760794 50.1198297,26.0249105 C47.9421984,26.6796134 45.9080082,26.3096916 44.1904294,24.760277 C42.902431,23.5969316 42.2758975,22.1010969 42.2751542,20.3924103 C42.2640357,16.3863919 42.2610628,7.86130852 42.2610628,3.23141394 L42.2610628,0.0679951545 C42.2610628,0.0679951545 36.6386118,0.047443942 36.5798975,0.0679951545 C35.4301379,0.153869864 34.5248973,1.09995961 34.5248973,2.26183709 C34.5248973,2.28092036 34.5302485,2.30147157 34.5302485,2.32495867 L34.5302485,3.3627949 C34.5302485,9.37916236 34.5191299,14.5162315 34.5429129,20.6529704 C34.5488587,21.6108037 34.6543957,22.5825824 34.8751317,23.5139927 C36.4960922,30.4162642 43.3931636,34.9823033 50.7770434,33.6655577 C54.2337545,33.0453515 57.0735939,31.3484085 59.250482,28.6106934 C61.0476151,26.351528 62.0167725,23.7701489 62.0382961,20.8929792 C62.065052,17.6767144 62.0448365,14.4692573 62.0448365,11.2618002 L62.0448365,2.32495867 L62.0507822,2.32495867 L62.0506038,2.32495867 Z" id="path4170"></path>
                        <path d="M123.390303,2.32495867 C123.396249,2.30147157 123.396249,2.28092036 123.396249,2.26183709 C123.396249,1.09995961 122.491008,0.153869864 121.344251,0.0679951545 C121.279561,0.047443942 115.683123,0.0679951545 115.683123,0.0679951545 C115.683123,0.0679951545 115.689069,1.25996548 115.689069,3.17122824 C115.689069,8.96446825 115.695014,14.0897939 115.682528,19.9703765 C115.682528,20.5502143 115.631989,21.1528052 115.495237,21.7150277 C114.962379,23.8787768 113.629758,25.3760794 111.468477,26.0249105 C109.286386,26.6796134 107.249967,26.3096916 105.539077,24.760277 C104.250335,23.5969316 103.626804,22.1010969 103.623058,20.3924103 C103.611167,16.3863919 103.611167,7.86130852 103.611167,3.23141394 L103.611167,0.0679951545 C103.611167,0.0679951545 97.9894592,0.047443942 97.9292882,0.0679951545 C96.7824717,0.153869864 95.8757446,1.09995961 95.8757446,2.26183709 L95.8757446,2.32495867 L95.8757446,3.3627949 C95.8757446,9.37916236 95.8650423,14.5162315 95.8959602,20.6529704 C95.8959602,21.6108037 96.0044701,22.5825824 96.2214901,23.5139927 C97.8431937,30.4162642 104.742465,34.9823033 112.122629,33.6655577 C115.581569,33.0453515 118.419179,31.3484085 120.593124,28.6106934 C122.387968,26.351528 123.360871,23.7701489 123.386854,20.8929792 C123.404692,17.6767144 123.386854,14.4692573 123.386854,11.2618002 L123.386854,2.32495867 L123.386854,2.32495867 L123.390303,2.32495867 Z" id="path4174"></path>
                        <path d="M83.8292959,23.3029024 C82.2782278,25.1253546 80.278196,26.1536492 77.8820583,26.418613 C77.4220355,26.4699911 76.9560075,26.4810006 76.4907525,26.4839365 C75.1656229,26.497148 73.8322882,26.4920396 72.5041263,26.4920396 C72.0188341,26.4920396 72.0121154,26.4920396 72.0121154,26.0222976 L72.0121154,16.7786558 L72.0121154,7.52547235 C72.0121154,7.090961 72.0186557,7.0858232 72.452101,7.0858232 C74.076064,7.09979802 75.6969947,7.05722765 77.3209578,7.14084173 C80.3428858,7.29424185 82.7315914,8.6447501 84.4565727,11.0969501 C85.51123,12.6015925 86.0389155,14.3014713 86.1392203,16.1297953 C86.2863776,18.8139304 85.5929841,21.2375056 83.8292959,23.3029024 M86.0998594,2.65186974 C83.6219676,1.10392306 80.8988135,0.275268812 77.9675582,0.174714665 C76.6163862,0.131380966 75.2667007,0.131380966 73.922188,0.131380966 C71.1589001,0.125509191 69.5691846,0.130206611 66.8148154,0.131380966 C66.7981673,0.131380966 66.784492,0.130206611 66.7636819,0.130206611 C65.5336844,0.130206611 64.5362846,1.11593084 64.5362846,2.33212224 L64.5362846,2.37392927 L64.5362846,2.6447649 L64.5362846,16.8001465 L64.5362846,31.2623283 L64.5362846,31.2990269 C64.5362846,32.5122824 65.5336844,33.5016765 66.7636819,33.5016765 C70.7577403,33.4891696 73.500991,33.5016765 77.4950493,33.4862337 C78.3058714,33.4815363 79.1286445,33.4106346 79.9275751,33.2777857 C83.1888196,32.7441882 86.0896327,31.4193689 88.5102669,29.1939662 C93.0669718,25.0029868 94.901236,19.8116037 93.8257685,13.7607396 C92.9725532,8.95028791 90.2754416,5.26134527 86.1000378,2.65207526" id="path4186"></path>
                    </g>
                </g>
            </g>
        </g>
    </g>
</svg>